<?xml version="1.0" standalone="no"?>
<!DOCTYPE svg PUBLIC "-//W3C//DTD SVG 1.1//EN" "http://www.w3.org/Graphics/SVG/1.1/DTD/svg11.dtd" >
<!--
2016-3-17: Created.
-->
<svg xmlns="http://www.w3.org/2000/svg">
<metadata>
Created by FontForge 20120731 at Thu Mar 17 19:15:17 2016
 By Apache
Created by Apache with FontForge 2.0 (http://fontforge.sf.net)
</metadata>
<defs>
<font id="Flaticon" horiz-adv-x="512" >
  <font-face 
    font-family="Flaticon"
    font-weight="500"
    font-stretch="normal"
    units-per-em="512"
    panose-1="2 0 6 3 0 0 0 0 0 0"
    ascent="448"
    descent="-64"
    bbox="-0.000569344 -64.0029 512.002 448"
    underline-thickness="25.6"
    underline-position="-51.2"
    unicode-range="U+0020-F158"
  />
    <missing-glyph />
    <glyph glyph-name="space" unicode=" " horiz-adv-x="200" 
 />
    <glyph glyph-name="uniF101" unicode="&#xf101;" 
d="M512 202.309v-20.624h-245.689v-245.685h-20.6299v245.685h-245.681v20.624h245.681v245.691h20.6299v-245.691h245.689z" />
    <glyph glyph-name="uniF13A" unicode="&#xf13a;" 
d="M376.474 233.406v0.00683594h135.526v-271.057h-350.11v0.249023h-161.89v355.13h161.89v103.909h214.584v-188.238zM106.721 -22.3418h55.1689v325.021h-146.826v-325.021h55.1699v85.3955h36.4873v-85.3955zM496.938 -22.5879v240.931h-135.53v188.238h-184.465
v-88.8457v-340.323h63.9941v151.841h65.2549v-151.841h190.746zM196.458 370.196h31.377v-69.7812h-31.377v69.7812zM256.58 370.196h31.3662v-69.7812h-31.3662v69.7812zM314.413 370.196h31.3789v-69.7812h-31.3789v69.7812zM196.458 263.033h31.377v-77.3125h-31.377
v77.3125zM256.58 263.033h31.3662v-77.3125h-31.3662v77.3125zM314.413 263.033h31.3789v-77.3125h-31.3789v77.3125zM401.629 112.807h-31.3672v71.665h31.3672v-71.665zM401.629 -1.88477h-31.3672v73.5439h31.3672v-73.5439zM467.503 112.807h-31.3662v71.665h31.3662
v-71.665zM467.503 -1.88477h-31.3662v73.5439h31.3662v-73.5439zM39.8496 277.645h31.3672v-71.6592h-31.3672v71.6592zM39.8496 164.842h31.3672v-73.543h-31.3672v73.543zM105.727 277.645h31.3662v-71.6592h-31.3662v71.6592zM105.727 164.842h31.3662v-73.543h-31.3662
v73.543z" />
    <glyph glyph-name="uniF100" unicode="&#xf100;" 
d="M256 -63.9883c-141.165 0 -256 114.835 -256 255.977c0 141.153 114.835 256 256 256s256 -114.835 256 -256s-114.858 -255.977 -256 -255.977zM256 430.628c-131.582 0 -238.64 -107.058 -238.64 -238.64s107.058 -238.64 238.64 -238.64s238.64 107.058 238.64 238.64
s-107.058 238.64 -238.64 238.64zM363.81 183.319h-215.607c-4.79199 0 -8.68066 3.88867 -8.68066 8.68066s3.88867 8.68066 8.68066 8.68066h215.596c4.79199 0 8.68066 -3.88867 8.68066 -8.68066s-3.87695 -8.68066 -8.66895 -8.68066zM256 75.5215
c-4.79199 0 -8.68066 3.88867 -8.68066 8.68066v215.584c0 4.79199 3.88867 8.68066 8.68066 8.68066s8.68066 -3.88867 8.68066 -8.68066v-215.572c0 -4.80371 -3.88867 -8.69238 -8.68066 -8.69238z" />
    <glyph glyph-name="uniF10A" unicode="&#xf10a;" 
d="M256.009 53.3799l-256.009 263.59l14.0586 13.6504l241.95 -249.119l241.958 249.119l14.0332 -13.6504z" />
    <glyph glyph-name="uniF150" unicode="&#xf150;" 
d="M510.497 290.503c0.922852 -0.938477 1.49805 -2.22266 1.50195 -3.64062v-36.5869c0 -2.85645 -2.30762 -5.16504 -5.16406 -5.16504h-15.0723v-31.7676h-17.2197v31.7676h-14.6299v-31.7676h-17.2236v31.7676h-35.2959v-20.1826h-18.083v-251.757h43.9141v-24.1074
h-130.848v24.1074h41.752v251.757h-5.17285c-14.7031 0 -27.3564 8.69922 -33.1621 21.2119h-243.597v-120.721c5.77539 -0.447266 10.333 -5.21191 10.333 -11.0996c0 -6.18164 -5.01465 -11.1895 -11.1875 -11.1895c-2.1709 0 -4.17676 0.647461 -5.89453 1.71875
c-0.484375 -0.770508 -0.870117 -1.59473 -1.35547 -2.32227c-0.341797 -0.389648 -0.597656 -1.37598 -0.888672 -2.25098l-0.46875 -1.3291l-0.251953 -0.679688l-0.119141 -0.338867l-0.0107422 -0.0292969c-0.0488281 -0.09375 0.359375 0.776367 0.192383 0.396484
l-0.00488281 -0.0332031l-0.00683594 -0.0791016l-0.0107422 -0.144531c-0.0566406 -0.785156 -0.164062 -1.55469 -0.273438 -2.3252c-0.0107422 -0.786133 0.0888672 -1.57812 0.103516 -2.36523c0.192383 -1.57715 0.574219 -3.13379 1.23145 -4.61133
c0.644531 -1.45703 1.48926 -2.87109 2.60059 -4.02734c0.479492 -0.757812 1.01465 -0.980469 1.46582 -1.46582c0.216797 -0.423828 1.37793 -1.05176 2.33691 -1.58496l0.725586 -0.413086l0.364258 -0.199219v-0.00683594l0.993164 -0.361328
c0.737305 -0.329102 1.49219 -0.602539 2.28418 -0.692383c1.53711 -0.423828 3.12109 -0.401367 4.66992 -0.345703c0.757812 0.100586 1.50977 0.216797 2.28906 0.27832c0.736328 0.217773 1.4502 0.421875 2.12988 0.625
c1.33691 0.479492 2.6123 1.16016 3.69043 1.74316c0.902344 0.738281 1.99414 1.21289 2.70801 1.98145c1.43359 1.48438 2.33398 2.29883 2.33398 2.29883s-0.134766 -1.21094 -0.523438 -3.23438c-0.201172 -0.994141 -0.856445 -2.23633 -1.61816 -3.69824
c-0.867188 -1.32812 -1.92383 -2.81738 -3.46582 -4.08887c-0.805664 -0.630859 -1.64551 -1.27246 -2.5127 -1.94141c-0.960938 -0.512695 -2.0166 -0.970703 -3.10742 -1.47266c-2.22168 -0.763672 -4.77344 -1.39453 -7.4541 -1.2373
c-1.3584 -0.0839844 -2.69922 0.155273 -4.0498 0.506836l-2.04492 0.496094l-0.124023 0.0224609l-0.0654297 0.0214844l-0.0273438 0.0117188l-0.479492 0.210938l-0.1875 0.0947266l-0.384766 0.174805l-0.751953 0.356445
c-1.62891 0.536133 -5.10156 2.91113 -6.88867 5.03223c-3.94141 4.34961 -5.79297 10.3291 -5.30469 15.667c0.213867 1.33203 0.319336 2.64355 0.6875 3.85156c0.452148 1.19531 0.886719 2.3623 1.36133 3.4502l0.371094 0.799805l0.222656 0.303711l0.426758 0.580078
l0.859375 1.125c0.610352 0.725586 1.04883 1.39355 1.98535 2.16504c1.03418 0.915039 1.99316 1.72754 2.94727 2.34277c-1.19336 1.77832 -1.90137 3.91992 -1.90137 6.22363c0 4.66406 2.8457 8.64746 6.88867 10.3369v121.468h-57.0352l36.4287 46.9189h107.764
l211.798 134.794l0.108398 0.993164c0.249023 2.64648 2.4707 4.66895 5.13574 4.66895h3.66016l2.24023 1.42773l1.41699 -1.42773h1.66406c2.60742 0 4.80664 -1.95508 5.12598 -4.55469l0.317383 -2.60156l114.871 -115.73h1.23242v-1.24707l18.7188 -18.8633
l0.00488281 -0.00488281zM365.785 421.635l-3.42285 -35.7422h7.59473c0.0439453 0 0.0957031 -0.03125 0.145508 -0.03125l-4.27832 35.7334zM361.367 375.565l-2.375 -24.6992h15.293l-2.9834 24.9727c-0.443359 -0.125977 -0.862305 -0.273438 -1.34375 -0.273438
h-8.59082zM21.0977 256.468h34.9668l-17.46 22.5469zM48.7998 282.727l15.6533 -20.2197l37.1797 20.2197h-52.833zM74.9756 256.468h50.8262l-15.0625 19.4463zM118.533 282.727l15.8086 -20.417l43.4805 20.417h-59.2891zM146.209 256.468h62.1777l-19.8701 19.8701z
M196.733 282.727l20.041 -20.0352l26.7139 20.0352h-46.7549zM225.691 256.468h56.4961l-24.9619 23.6494zM297.213 256.468v26.2588h-27.7275l24.3926 -23.1084c0.916016 -0.866211 1.38281 -1.99023 1.51172 -3.15039h1.82324zM302.377 314.023
c0 20.1992 16.377 36.5811 36.584 36.5811v0.261719h9.66602l6.125 63.9404l-191.311 -121.753h138.936v20.9697zM378.992 -24.2412v21.6963l-20.5645 -21.6963h20.5645zM354.457 -13.4326l19.8506 20.9619l-19.8506 26.4668v-47.4287zM378.992 18.4951v51.5928
l-22.1074 -22.1084zM354.457 60.165l16.0693 16.083l-16.0693 34.2129v-50.2959zM378.992 82.5273v65.3027l-22.4932 -17.4141zM354.457 141.907l15.6504 12.1152l-15.6504 28.7803v-40.8955zM378.992 159.31v58.251l-22.2871 -17.2559zM354.457 211.631l17.1621 13.291
h-17.1621v-13.291zM393.361 267.964l0.000976562 72.8457h-10.2861h-32.5732c-20.1084 -0.0126953 -36.3994 -8.74512 -36.3994 -36.4248c0 -20.1123 16.3105 -36.4209 36.4219 -36.4209h42.8359zM442.695 255.438v26.2559h-35.2891v-26.2559h35.2891zM474.544 255.438
v26.2559h-14.6299v-26.2559h14.6299zM474.544 310.624l0.000976562 -0.00488281h1.42871l-98.3184 99.0479l7.03809 -58.8057h22.7012v-58.8281h35.2959v18.5908h17.2236v-18.5908h14.6299v18.5908zM491.759 294.71l2.66895 -2.68262h-2.66895v2.68262zM501.668 255.438
v26.2559h-9.90527v-26.2559h9.90527z" />
    <glyph glyph-name="uniF13E" unicode="&#xf13e;" 
d="M256.042 -64l-6.56445 11.5693c-0.941406 1.66016 -94.791 167.103 -120.87 215.545c-16.5664 30.8066 -35.9062 81.1094 -35.9062 121.505c0 90.0869 73.2598 163.381 163.307 163.381c90.0361 0 163.291 -73.2939 163.291 -163.381
c0 -39.0186 -18.0732 -91.7031 -35.0859 -121.471c-30.4473 -53.0986 -120.754 -213.934 -121.659 -215.55zM256.008 432.989c-81.7705 0 -148.295 -66.5605 -148.295 -148.37c0 -35.1914 17.1328 -82.8115 34.1094 -114.391
c21.9619 -40.7891 92.2686 -165.057 114.15 -203.681c21.3906 38.0742 89.5352 159.288 115.201 204.057c16.2715 28.4707 33.1045 78.9131 33.1045 114.015c0.00976562 81.8096 -66.5107 148.37 -148.271 148.37zM256.008 210.975
c-40.8652 0 -74.1104 33.2549 -74.1104 74.1299c0 40.8848 33.2451 74.1504 74.1104 74.1504c40.8496 0 74.0889 -33.2656 74.0889 -74.1504c-0.00488281 -40.875 -33.2393 -74.1299 -74.0889 -74.1299zM256.008 344.243c-32.5898 0 -59.0986 -26.5293 -59.0986 -59.1387
c0 -32.5996 26.5098 -59.1191 59.0986 -59.1191c32.5742 0 59.0791 26.5244 59.0791 59.1191c-0.00488281 32.6094 -26.5107 59.1387 -59.0791 59.1387z" />
    <glyph glyph-name="uniF144" unicode="&#xf144;" 
d="M112.855 288.507v12.8135h293.995v-12.8135h-293.995zM112.855 218.011v12.8066h293.995v-12.8066h-293.995zM413.911 448c39.9766 0 72.5039 -26.8467 72.5039 -59.8262v-255.269c0 -32.9902 -32.5293 -59.8086 -72.5068 -59.8086h-115.284l-88.1396 -137.1
l-1.3418 2.08496l-86.8076 135.007h-24.2432c-39.9795 0 -72.5068 26.8184 -72.5068 59.8086v255.276c0 32.9795 32.5293 59.8262 72.5068 59.8262h315.819zM413.911 85.8877c32.9268 0 59.6895 21.0977 59.6973 47.0098v255.276
c0 25.9092 -26.7637 47.0098 -59.6904 47.0098h-315.818c-32.9072 0 -59.708 -21.0977 -59.708 -47.0098v-255.264c0 -25.9189 26.7988 -47.0195 59.708 -47.0195h31.2324l0.463867 -0.716797l80.6982 -125.49l81.1631 126.204h122.254z" />
    <glyph glyph-name="uniF156" unicode="&#xf156;" 
d="M473.493 282.53c0.0185547 -0.220703 0.128906 -0.404297 0.128906 -0.625v-207.901c0 -33.8096 -27.4941 -61.3037 -61.3027 -61.3037h-42.873v-15.3975c0 -33.8086 -27.5029 -61.3027 -61.3027 -61.3027h-208.453c-33.8096 0 -61.3125 27.4941 -61.3125 61.3027
v312.685c0 33.8096 27.5029 61.3125 61.3125 61.3125h42.8633v15.3877c0 33.8096 27.4941 61.3125 61.3027 61.3125h103.652c0.202148 0 0.376953 -0.101562 0.570312 -0.119141c0.835938 -0.0458984 1.64551 -0.220703 2.43555 -0.487305
c0.266602 -0.0917969 0.541992 -0.15625 0.791016 -0.276367c0.983398 -0.450195 1.9209 -1.01074 2.71094 -1.81055l156.903 -156.875c0 -0.00976562 0.00878906 -0.0185547 0.00878906 -0.0185547v0v-0.00878906c0.78125 -0.78125 1.33301 -1.70117 1.7832 -2.67578
c0.138672 -0.302734 0.211914 -0.606445 0.322266 -0.918945c0.256836 -0.744141 0.404297 -1.49805 0.458984 -2.2793zM316.71 416.617v-82.5918c0 -23.6699 19.2578 -42.9277 42.9277 -42.9277h82.5928zM351.062 -2.6875v0l-0.00878906 24.5889v174.12h-95.5996
c-33.7998 0 -61.2939 27.4941 -61.2939 61.3037v95.5898h-42.4131h-52.0557c-23.6699 0 -42.9277 -19.2578 -42.9277 -42.9277v-312.675c0 -23.6611 19.2578 -42.9189 42.9277 -42.9189h208.453c23.6602 0 42.918 19.2578 42.918 42.9189zM338.064 214.406l-125.512 125.511
v-82.5918c0 -23.6709 19.249 -42.9189 42.9092 -42.9189h82.6025zM412.319 31.085c23.6611 0 42.918 19.2578 42.9004 42.9189v198.699h-95.5908c-33.8086 0 -61.3125 27.5039 -61.3125 61.3125v95.5996h-94.4688c-23.6611 0 -42.9189 -19.2578 -42.9189 -42.9277v-15.3877
h42.4131c0.202148 0 0.376953 -0.101562 0.570312 -0.119141c0.835938 -0.0458984 1.62695 -0.211914 2.41797 -0.487305c0.275391 -0.0917969 0.541992 -0.166016 0.808594 -0.285156c0.983398 -0.450195 1.91211 -1.01172 2.71191 -1.80176l156.894 -156.885
s0.00878906 -0.00878906 0.00878906 -0.0175781v0v0c0.78125 -0.782227 1.3418 -1.70117 1.7832 -2.66602c0.137695 -0.3125 0.220703 -0.616211 0.331055 -0.919922c0.257812 -0.75293 0.395508 -1.50684 0.450195 -2.28809
c0.0185547 -0.211914 0.128906 -0.404297 0.128906 -0.616211v-174.129h42.873z" />
    <glyph glyph-name="uniF102" unicode="&#xf102;" 
d="M504.666 10.0928c4.0332 0 7.33398 -3.30078 7.33398 -7.33594v-15.21c0 -4.03418 -3.30078 -7.33398 -7.33398 -7.33398h-497.332c-4.0332 0 -7.33398 3.2998 -7.33398 7.33398v15.21c0 4.0332 3.30078 7.33398 7.33398 7.33398h5.05664
c3.00977 0 4.5 0.456055 4.5 3.20703v289.344c0 7.26172 5.94141 13.2021 13.2021 13.2021h110.297c3.11719 0 2.75488 4.75977 2.75488 4.75977v53.3574c0 0.220703 -0.00390625 2.13086 -2.13574 2.13086c-4.03418 0 -7.33398 3.30078 -7.33398 7.33398v13.0273
c0 4.03418 3.2998 7.33398 7.33398 7.33398h237.141c4.03418 0 7.33398 -3.2998 7.33398 -7.33398v-13.0273c0 -4.0332 -3.2998 -7.33398 -7.33398 -7.33398c-1.8252 0 -2.13379 -0.617188 -2.13379 -1.16797v-55.6025s-0.195312 -3.47656 3.47168 -3.47656h102.13
c7.25977 0 13.2012 -5.94043 13.2012 -13.2012v-288.428s0 -4.12305 3.48438 -4.12305h6.36328zM287.613 252.602c-3.22852 0 -5.86719 -2.64062 -5.86719 -5.86719v-43.8955c0 -3.22754 2.63867 -5.86816 5.86719 -5.86816h43.8945
c3.22852 0 5.86719 2.64062 5.86719 5.86816v43.8955c0 3.22656 -2.63867 5.86719 -5.86719 5.86719h-43.8945zM281.746 279.829c0 -3.22656 2.63867 -5.86719 5.86719 -5.86719h43.8945c3.22852 0 5.86719 2.64062 5.86719 5.86719v43.8955
c0 3.22754 -2.63867 5.86816 -5.86719 5.86816h-43.8945c-3.22852 0 -5.86719 -2.64062 -5.86719 -5.86816v-43.8955zM287.613 178.324c-3.22852 0 -5.86719 -2.6416 -5.86719 -5.86719v-43.8955c0 -3.22754 2.63867 -5.86719 5.86719 -5.86719h43.8945
c3.22852 0 5.86719 2.63965 5.86719 5.86719v43.8955c0 3.22754 -2.63867 5.86719 -5.86719 5.86719h-43.8945zM294.128 90.0752h-67.9668c-3.22559 0 -5.86719 -2.63965 -5.86719 -5.86719v-67.9668c0 -3.22656 2.6416 -5.86719 5.86719 -5.86719h67.9668
c3.22559 0 5.86719 2.64062 5.86719 5.86719v67.9668c0 3.22754 -2.6416 5.86719 -5.86719 5.86719zM237.488 279.829v43.8955c0 3.22754 -2.64062 5.86816 -5.86719 5.86816h-43.8955c-3.22754 0 -5.86816 -2.64062 -5.86816 -5.86816v-43.8955
c0 -3.22656 2.64062 -5.86719 5.86816 -5.86719h43.8955c3.22656 0 5.86719 2.64062 5.86719 5.86719zM187.726 252.602c-3.22754 0 -5.86816 -2.64062 -5.86816 -5.86719v-43.8955c0 -3.22754 2.64062 -5.86816 5.86816 -5.86816h43.8955
c3.22656 0 5.86719 2.64062 5.86719 5.86816v43.8955c0 3.22656 -2.64062 5.86719 -5.86719 5.86719h-43.8955zM187.726 178.324c-3.22754 0 -5.86816 -2.6416 -5.86816 -5.86719v-43.8955c0 -3.22754 2.64062 -5.86719 5.86816 -5.86719h43.8955
c3.22656 0 5.86719 2.63965 5.86719 5.86719v43.8955c0 3.22754 -2.64062 5.86719 -5.86719 5.86719h-43.8955zM393.296 248.091v-43.8955c0 -3.22656 2.64258 -5.86719 5.86816 -5.86719h43.8965c3.22559 0 5.86719 2.64062 5.86719 5.86719v43.8955
c0 3.22754 -2.6416 5.86816 -5.86719 5.86816h-43.8965c-3.22559 0 -5.86816 -2.64062 -5.86816 -5.86816zM393.296 171.099v-43.8955c0 -3.22754 2.64258 -5.86719 5.86816 -5.86719h43.8965c3.22559 0 5.86719 2.63965 5.86719 5.86719v43.8955
c0 3.22754 -2.6416 5.86719 -5.86719 5.86719h-43.8965c-3.22559 0 -5.86816 -2.63965 -5.86816 -5.86719zM393.296 96.8232v-43.8955c0 -3.22754 2.64258 -5.86816 5.86816 -5.86816h43.8965c3.22559 0 5.86719 2.64062 5.86719 5.86816v43.8955
c0 3.22656 -2.6416 5.86719 -5.86719 5.86719h-43.8965c-3.22559 0 -5.86816 -2.64062 -5.86816 -5.86719zM62.7812 248.091v-43.8955c0 -3.22656 2.64062 -5.86719 5.86719 -5.86719h43.8965c3.22656 0 5.86719 2.64062 5.86719 5.86719v43.8955
c0 3.22754 -2.64062 5.86816 -5.86719 5.86816h-43.8965c-3.22656 0 -5.86719 -2.64062 -5.86719 -5.86816zM62.7812 171.099v-43.8955c0 -3.22754 2.64062 -5.86719 5.86719 -5.86719h43.8965c3.22656 0 5.86719 2.63965 5.86719 5.86719v43.8955
c0 3.22754 -2.64062 5.86719 -5.86719 5.86719h-43.8965c-3.22656 0 -5.86719 -2.63965 -5.86719 -5.86719zM62.7812 96.8232v-43.8955c0 -3.22754 2.64062 -5.86816 5.86719 -5.86816h43.8965c3.22656 0 5.86719 2.64062 5.86719 5.86816v43.8955
c0 3.22656 -2.64062 5.86719 -5.86719 5.86719h-43.8965c-3.22656 0 -5.86719 -2.64062 -5.86719 -5.86719z" />
    <glyph glyph-name="uniF104" unicode="&#xf104;" 
d="M423.426 103.417l-167.425 -167.417l-167.427 167.417l13.3047 13.3125l144.715 -144.733v476.004h18.8193v-475.976l144.708 144.705z" />
    <glyph glyph-name="uniF103" unicode="&#xf103;" 
d="M380.97 -64l-263.592 256.008l263.592 255.992l13.6553 -14.0527l-249.096 -241.939l249.096 -241.944z" />
    <glyph glyph-name="uniF145" unicode="&#xf145;" 
d="M386.001 441.816c14.5332 -1.02734 24.9443 -4.40332 25.8203 -4.70996l-3.48535 -10.3135c-0.418945 0.163086 -43.6992 14.3154 -76.4492 -9.25c-25.6064 -18.4092 -38.6055 -54.709 -38.6055 -107.874v-373.672h-10.8662v373.667
c0 56.9238 14.5332 96.2197 43.1992 116.762c4.62207 3.30469 9.36719 5.95508 14.1611 8.08789c-10.7744 -1.54199 -22.166 -5.20898 -32.5137 -12.6611c-25.625 -18.4092 -38.6064 -54.707 -38.6064 -107.847v-378.006h-10.8838v40.1123h-122.099v-37.7891h-10.873
v372.561c0 56.9336 14.5508 96.2119 43.21 116.771c4.94531 3.55859 10.0742 6.32617 15.2129 8.51465c-11.084 -1.46289 -22.876 -5.08496 -33.5693 -12.79c-25.6172 -18.3818 -38.6055 -54.6641 -38.6055 -107.829v-376.943h-10.874v376.943
c0 56.9062 14.541 96.2021 43.207 116.741c37.2725 26.6982 83.9395 11.4473 86.1816 10.6836c13.9424 -1.1084 23.791 -4.33984 24.6709 -4.63965l-3.47754 -10.3027c-0.425781 0.129883 -43.6992 14.29 -76.4482 -9.25684
c-24.71 -17.7725 -37.5537 -52.3213 -38.4521 -102.437h122.01c0.418945 55.5996 14.8682 94.1494 43.1367 114.41c34.5938 24.7549 77.2471 13.4277 84.999 11.0664zM257.784 -13.0039l-0.00195312 52.584h-122.099v-52.584h122.101zM257.784 50.4492l-0.00195312 81.6123
h-122.099v-81.6123h122.101zM257.784 142.936l-0.00195312 74.3428h-122.099v-74.3428h122.101zM257.784 228.154l-0.00195312 77.3115h-122.099v-77.3115h122.101z" />
    <glyph glyph-name="uniF112" unicode="&#xf112;" 
d="M256 448c141.391 0 256 -114.609 256 -256s-114.609 -256 -256 -256s-256 114.609 -256 256s114.609 256 256 256zM256 -24c119.297 0 216 96.7031 216 216s-96.7031 216 -216 216s-216 -96.7031 -216 -216s96.7031 -216 216 -216zM249.703 246.75h-61.7031v25h19.3115
c6.85938 0 13.4229 1.21875 19.5 3.59375c6.17285 2.375 11.4385 5.6416 15.7979 9.79688c4.35742 4.20312 7.92188 9.25 10.5469 15.2344c2.7334 5.90625 4.04688 12.5 4.04688 19.625h26.7969v-256h-34.2969v182.75z" />
    <glyph glyph-name="uniF107" unicode="&#xf107;" 
d="M198.608 369.652c3.29102 0 5.97266 -2.67578 5.97266 -5.97363v-151.021c0 -3.30273 -2.67578 -5.97266 -5.97266 -5.97266s-5.97266 2.66992 -5.97266 5.97266v151.021c0 3.30371 2.67578 5.97363 5.97266 5.97363zM506.863 100.526
c0.0234375 -0.0771484 0 -0.149414 0.0361328 -0.239258c3.29102 -10.8408 5.10059 -22.3389 5.10059 -34.2549c0 -65.0703 -52.9033 -117.967 -117.967 -117.967c-65.04 0 -117.967 52.8965 -117.967 117.967v107.257h-40.1328v-106.021
c0 -65.0635 -52.9209 -117.967 -117.967 -117.967s-117.967 52.9033 -117.967 117.967c0 11.9102 1.80371 23.4141 5.11328 34.2617c0.0175781 0.0771484 0 0.130859 0.0175781 0.220703l87.6064 277.069c0.00585938 0 0.00585938 0.00585938 0.00585938 0.00585938
c8.37988 38.7529 46.5771 63.6484 85.4678 55.6035c30.4385 -6.31934 53.4219 -31.2812 57.1914 -62.1133c0.197266 -1.64258 -0.287109 -3.20801 -1.23633 -4.41406c1.08691 -1.08105 1.75586 -2.57422 1.75586 -4.22949v-22.5596h40.1445v21.335
c0 1.65527 0.651367 3.14844 1.75 4.22949c-0.949219 1.20605 -1.43945 2.77148 -1.23633 4.41406c3.77441 30.832 26.7295 55.7939 57.1738 62.1133c38.9141 8.0332 77.0996 -16.8496 85.4854 -55.6025l0.0117188 -0.00683594zM117.973 -38.7578
c58.458 0 106.021 47.5742 106.021 106.038c0 58.4463 -47.5576 106.021 -106.021 106.021c-47.4912 0 -87.7852 -31.3887 -101.236 -74.5195l-0.0117188 -0.0419922c-3.10059 -9.95117 -4.77246 -20.5234 -4.77246 -31.4775c0 -58.458 47.5566 -106.021 106.021 -106.021z
M117.973 185.229c46.6016 0 86.8711 -27.2373 106.045 -66.5811v214.162c-0.304688 0.716797 -0.477539 1.50488 -0.477539 2.33594c0 0.830078 0.172852 1.61816 0.477539 2.33496v26.1973c0 1.4043 0.549805 2.64062 1.36816 3.66211
c-0.950195 0.914062 -1.63672 2.12012 -1.81055 3.53027c-3.1416 25.749 -22.3389 46.5889 -47.7539 51.8633c-32.6484 6.79102 -64.7295 -14.2754 -71.5088 -46.9238c-0.0234375 -0.101562 -0.0957031 -0.173828 -0.119141 -0.275391
c-0.0302734 -0.107422 0 -0.208984 -0.0361328 -0.316406l-71.8018 -227.046c21.5215 22.7451 51.8994 37.0566 85.6172 37.0566zM235.939 185.229v-0.00585938h40.1387v143.943h-40.1387v-143.938zM288.006 362.455v0l0.0244141 -0.00683594v-245.013
c19.1553 39.3271 59.4131 66.5752 106.021 66.5752c33.7236 0 64.0908 -14.2871 85.6172 -37.0557l-71.7949 227.045c-0.0361328 0.101562 -0.0126953 0.203125 -0.0361328 0.310547c-0.0185547 0.0957031 -0.101562 0.173828 -0.125977 0.275391
c-6.7793 32.6484 -38.8721 53.7207 -71.502 46.9238c-25.4219 -5.27441 -44.625 -26.1143 -47.7607 -51.8633c-0.191406 -1.41602 -0.866211 -2.61035 -1.80957 -3.53027c0.806641 -1.01562 1.36719 -2.25195 1.36719 -3.66113zM394.027 -39.9824
c58.458 0 106.021 47.5625 106.021 105.997c0 10.9541 -1.66016 21.5322 -4.77246 31.4834l-0.0117188 0.0361328c-13.4512 43.1367 -53.7451 74.5254 -101.236 74.5254c-58.458 0 -106.021 -47.5635 -106.021 -106.021s47.5635 -106.021 106.021 -106.021zM427.267 213.936
l-38.9971 146.979c-0.854492 3.19531 1.05078 6.46191 4.23438 7.31055c3.20801 0.830078 6.46289 -1.05762 7.31738 -4.24121l38.9971 -146.978c0.866211 -3.19531 -1.05078 -6.46289 -4.23438 -7.31055c-0.513672 -0.131836 -1.02734 -0.197266 -1.54102 -0.197266
c-2.6582 0 -5.06543 1.76758 -5.77637 4.4375z" />
    <glyph glyph-name="uniF110" unicode="&#xf110;" 
d="M209.586 364.399c101.73 0 184.485 -75.1074 184.485 -167.434c0 -89.8672 -80.4365 -164.835 -179.381 -167.294l-134.377 -93.6719l6.62012 16.8955c0.788086 2.07812 19.3623 51.2949 17.5439 106.454c-49.7197 31.3203 -79.3779 82.708 -79.3779 137.616
c0 92.3359 82.7656 167.434 184.486 167.434zM211.147 40.5791l1.66992 0.0078125c93.8584 1.56934 170.238 71.7178 170.238 156.368c0 86.2568 -77.8291 156.452 -173.478 156.452c-95.6592 0 -173.485 -70.1953 -173.485 -156.452
c0 -52.0859 28.6377 -100.579 76.6016 -129.771l2.50586 -1.52344l0.129883 -2.91504c1.86523 -40.5273 -6.71289 -77.3799 -12.8291 -97.8867zM302.414 448c101.721 0 184.476 -75.0977 184.486 -167.434c0 -50.6572 -25.4531 -98.1279 -69.7891 -130.294
l-1.86426 -1.35645l-0.381836 2.27441c-0.454102 2.82227 -1.12305 5.58691 -1.99414 8.21484l-0.316406 0.983398l0.816406 0.59375c39.7393 30.0381 62.5205 73.6318 62.5205 119.581c0 86.2637 -77.8291 156.434 -173.478 156.434
c-48.4102 0 -93.3574 -17.7314 -126.543 -49.9043l-0.71582 -0.695312l-0.899414 0.427734c-2.68262 1.31836 -5.38477 2.38379 -8.02051 3.16504l-2.29297 0.668945l1.6709 1.69922c34.959 35.376 84.8271 55.6416 136.801 55.6416z" />
    <glyph glyph-name="uniF115" unicode="&#xf115;" 
d="M179.775 107.095c-2.22266 0 -4.44434 0.844727 -6.13379 2.5459c-3.3916 3.3916 -3.3916 8.90039 0 12.292l152.438 152.438c3.3916 3.3916 8.88867 3.3916 12.2803 0c3.39062 -3.39062 3.39062 -8.88867 0 -12.2793l-152.45 -152.45
c-1.68945 -1.70117 -3.91211 -2.5459 -6.13379 -2.5459zM332.213 107.095c-2.22168 0 -4.44434 0.844727 -6.13379 2.5459l-152.449 152.438c-3.3916 3.3916 -3.3916 8.88867 0 12.2803c3.39062 3.39062 8.88867 3.39062 12.2793 0l152.438 -152.438
c3.39062 -3.3916 3.39062 -8.90039 0 -12.291c-1.69043 -1.69043 -3.91211 -2.53516 -6.13477 -2.53516zM256 -63.9883c-141.165 0 -256 114.835 -256 255.977c0 141.153 114.835 256 256 256s256 -114.835 256 -256s-114.858 -255.977 -256 -255.977zM256 430.628
c-131.582 0 -238.64 -107.058 -238.64 -238.64s107.058 -238.64 238.64 -238.64s238.64 107.058 238.64 238.64s-107.058 238.64 -238.64 238.64z" />
    <glyph glyph-name="uniF14B" unicode="&#xf14b;" 
d="M512 286.647h-512v93.1484h512v-93.1484v0zM16.3047 302.954h479.391v60.5361h-479.391v-60.5361zM512 145.427h-512v93.1465h512v-93.1465v0zM16.3047 161.731h479.391v60.5371h-479.391v-60.5371zM512 4.2041h-512v93.1484h512v-93.1484v0zM16.3047 20.5107h479.391
v60.5352h-479.391v-60.5352z" />
    <glyph glyph-name="uniF14F" unicode="&#xf14f;" 
d="M457.35 431.228c30.1348 0 54.6504 -24.5166 54.6465 -54.6484v-367.511c0 -30.1348 -24.5156 -54.6504 -54.6494 -54.6504h-21.2998v-5.54199c0 -3.88672 -3.15137 -7.03809 -7.03809 -7.03809s-7.03809 3.15137 -7.03809 7.03809v5.54199h-17.124v-5.54199
c0 -3.88672 -3.15137 -7.03809 -7.03809 -7.03809s-7.03809 3.15137 -7.03809 7.03809v5.54199h-17.124v-5.54199c0 -3.88672 -3.15137 -7.03809 -7.03809 -7.03809s-7.03809 3.15137 -7.03809 7.03809v5.54199h-17.124v-5.54199
c0 -3.88672 -3.15137 -7.03809 -7.03809 -7.03809s-7.03809 3.15137 -7.03809 7.03809v5.54199h-17.124v-5.54199c0 -3.88672 -3.15137 -7.03809 -7.03809 -7.03809s-7.03809 3.15137 -7.03809 7.03809v5.54199h-17.124v-5.54199
c0 -3.88672 -3.15137 -7.03809 -7.03809 -7.03809s-7.03809 3.15137 -7.03809 7.03809v5.54199h-183.809c-28.166 0 -51.0771 22.9111 -51.0771 51.0752v43.6123c-8.55078 2.93359 -14.7227 11.0352 -14.7227 20.5684v65.9648h-9.32324
c-3.88672 0 -7.03809 3.15137 -7.03809 7.03809s3.15137 7.03809 7.03809 7.03809h9.32324v24.6318c0 3.88672 3.15137 7.03809 7.03711 7.03809h7.68555v42.2266c0 3.88672 3.15137 7.03711 7.03809 7.03711s7.03711 -3.15039 7.03711 -7.03711v-42.2266h7.68555
c3.88672 0 7.03809 -3.15137 7.03809 -7.03809v-24.6318h9.32324c3.88672 0 7.03809 -3.15137 7.03809 -7.03809s-3.15137 -7.03809 -7.03809 -7.03809h-9.32324v-65.9648c0 -9.5332 -6.17188 -17.6328 -14.7236 -20.5684v-43.6123c0 -20.4014 16.5986 -37 37.002 -37
h40.4141v80.6123c-8.55078 2.93359 -14.7227 11.0352 -14.7227 20.5684v65.9648h-9.32324c-3.88672 0 -7.03809 3.15137 -7.03809 7.03809s3.15137 7.03809 7.03809 7.03809h9.32324v24.6318c0 3.88672 3.15039 7.03809 7.03711 7.03809h7.68555v42.2266
c0 3.88672 3.15137 7.03711 7.03809 7.03711s7.03711 -3.15039 7.03711 -7.03711v-42.2266h7.68555c3.88672 0 7.03809 -3.15137 7.03809 -7.03809v-24.6318h9.32324c3.88672 0 7.03711 -3.15137 7.03711 -7.03809s-3.15039 -7.03809 -7.03711 -7.03809h-9.32324v-65.9648
c0 -9.5332 -6.17285 -17.6328 -14.7236 -20.5684v-80.6123h71.4531c-11.0967 10.0098 -18.084 24.4902 -18.084 40.5752v367.511c0 30.1318 24.5166 54.6484 54.6504 54.6484h21.2998v3.89844c0 3.88672 3.15137 7.03809 7.03809 7.03809s7.03809 -3.15137 7.03809 -7.03809
v-3.89844h17.124v3.89844c0 3.88672 3.15137 7.03809 7.03809 7.03809s7.03809 -3.15137 7.03809 -7.03809v-3.89844h17.126v3.89844c0 3.88672 3.15137 7.03809 7.03809 7.03809s7.03711 -3.15137 7.03711 -7.03809v-3.89844h17.125v3.89844
c0 3.88672 3.15137 7.03809 7.03809 7.03809s7.03711 -3.15137 7.03711 -7.03809v-3.89844h17.125v3.89844c0 3.88672 3.15137 7.03809 7.03809 7.03809s7.03711 -3.15137 7.03711 -7.03809v-3.89844h17.127v3.89844c0 3.88672 3.15137 7.03809 7.03809 7.03809
c3.88574 0 7.03711 -3.15137 7.03711 -7.03809v-3.89844h21.2998zM121.928 167.311v-17.5947h15.3691v17.5947h-15.3691zM121.928 135.641l-0.00195312 -65.9648c0 -4.2373 3.44824 -7.68359 7.68555 -7.68359c4.23633 0 7.68555 3.44629 7.68555 7.68359v65.9648h-15.3691z
M30.4365 167.311v-17.5947h15.3691v17.5947h-15.3691zM30.4365 135.641h-0.00195312v-65.9648c0 -4.2373 3.44727 -7.68359 7.68555 -7.68359s7.68555 3.44629 7.68555 7.68359v65.9648h-15.3691zM497.925 9.06836v367.511c0 22.3711 -18.2021 40.5723 -40.5752 40.5723
h-212.68c-22.373 0 -40.5742 -18.1992 -40.5742 -40.5723v-367.511c0 -22.373 18.2012 -40.5752 40.5742 -40.5752h21.2998v8.2998c0 3.88672 3.15137 7.03711 7.03809 7.03711s7.03809 -3.15039 7.03809 -7.03711v-8.2998h17.124v8.2998
c0 3.88672 3.15137 7.03711 7.03809 7.03711s7.03809 -3.15039 7.03809 -7.03711v-8.2998h17.126v8.2998c0 3.88672 3.15137 7.03711 7.03809 7.03711s7.03711 -3.15039 7.03711 -7.03711v-8.2998h17.125v8.2998c0 3.88672 3.15137 7.03711 7.03809 7.03711
s7.03711 -3.15039 7.03711 -7.03711v-8.2998h17.125v8.2998c0 3.88672 3.15137 7.03711 7.03809 7.03711s7.03711 -3.15039 7.03711 -7.03711v-8.2998h17.127v8.2998c0 3.88672 3.15137 7.03711 7.03809 7.03711c3.88574 0 7.03711 -3.15039 7.03711 -7.03711v-8.2998
h21.2998c22.373 0 40.5752 18.2021 40.5752 40.5752zM444.37 402.973c19.8291 0 35.96 -16.1309 35.9619 -35.958v-304.941c0 -19.8291 -16.1309 -35.96 -35.96 -35.96h-186.723c-19.8291 0 -35.959 16.1309 -35.959 35.96v304.939c0 19.8291 16.1299 35.96 35.959 35.96
h186.721zM466.255 62.0752l0.000976562 304.939c0 12.0684 -9.81738 21.8838 -21.8838 21.8838h-186.723c-12.0664 0 -21.8838 -9.81738 -21.8838 -21.8838v-304.939c0 -12.0684 9.81738 -21.8848 21.8838 -21.8848h186.721c12.0684 0 21.8848 9.81836 21.8848 21.8848z
M446.021 376.055c3.88672 0 7.03809 -3.15137 7.03809 -7.03809v-77.415c0 -3.88672 -3.15137 -7.03809 -7.03809 -7.03809h-190.021c-3.88672 0 -7.03809 3.15137 -7.03809 7.03809v77.415c0 3.88672 3.15137 7.03809 7.03809 7.03809h190.021zM438.983 298.639v63.3398
h-175.944v-63.3398h175.944zM351.011 256.938c17.8584 0 34.6475 -6.95508 47.2744 -19.584c12.6299 -12.6279 19.585 -29.417 19.585 -47.2754s-6.95508 -34.6484 -19.585 -47.2754c-12.627 -12.6299 -29.416 -19.583 -47.2744 -19.583s-34.6465 6.95312 -47.2764 19.583
c-26.0693 26.0674 -26.0674 68.4844 0 94.5508c12.6279 12.6289 29.418 19.584 47.2764 19.584zM384.432 149.219c1.34766 1.10645 2.65137 2.28711 3.90039 3.53613c1.25098 1.25098 2.42969 2.55469 3.53809 3.9043l-74.2812 74.2822
c-1.34863 -1.10938 -2.65234 -2.28809 -3.90332 -3.53906c-1.25391 -1.25391 -2.43066 -2.55957 -3.53223 -3.90527zM313.686 152.757c9.97168 -9.96973 23.2256 -15.4609 37.3232 -15.459c7.37207 0 14.5068 1.51367 21.0684 4.37109l-69.458 69.457
c-8.36621 -19.3008 -4.6875 -42.6133 11.0664 -58.3691zM399.422 169.012c2.85742 6.56152 4.37207 13.6973 4.37207 21.0684c0 14.0977 -5.49121 27.3535 -15.46 37.3223c-9.96875 9.96973 -23.2246 15.4609 -37.3232 15.4609
c-7.37207 0 -14.5068 -1.51562 -21.0674 -4.37305zM265.324 89.791c11.6426 0 21.1133 -9.46875 21.1133 -21.1133c0 -11.6416 -9.4707 -21.1133 -21.1133 -21.1133s-21.1133 9.47168 -21.1133 21.1133c0 11.6426 9.4707 21.1133 21.1133 21.1133zM265.324 61.6406
c3.88086 0 7.03809 3.15625 7.03809 7.03711c0 3.88184 -3.15723 7.03809 -7.03809 7.03809c-3.88184 0 -7.03809 -3.15625 -7.03809 -7.03809c0 -3.88086 3.15625 -7.03711 7.03809 -7.03711zM317.521 89.791c11.6445 0 21.1133 -9.46875 21.1133 -21.1133
c0 -11.6416 -9.4707 -21.1133 -21.1133 -21.1133s-21.1133 9.47168 -21.1133 21.1133c0 11.6426 9.4707 21.1133 21.1133 21.1133zM317.521 61.6406c3.88184 0 7.03809 3.15625 7.03809 7.03711c0 3.88184 -3.15625 7.03809 -7.03809 7.03809
c-3.88086 0 -7.03809 -3.15625 -7.03809 -7.03809c0 -3.88086 3.15723 -7.03711 7.03809 -7.03711zM308.137 103.867c-3.88672 0 -7.03809 3.15039 -7.03809 7.03711s3.15137 7.03809 7.03809 7.03809h18.7676c3.88672 0 7.03809 -3.15137 7.03809 -7.03809
s-3.15137 -7.03711 -7.03809 -7.03711h-18.7676zM265.324 127.325c3.88672 0 7.03809 -3.15137 7.03809 -7.03711v-2.3457h2.34473c3.88672 0 7.03809 -3.15137 7.03809 -7.03809s-3.15137 -7.03711 -7.03809 -7.03711h-2.34473v-2.3457
c0 -3.88672 -3.15137 -7.03809 -7.03809 -7.03809s-7.03809 3.15137 -7.03809 7.03809v2.3457h-2.34473c-3.88672 0 -7.03809 3.15039 -7.03809 7.03711s3.15137 7.03809 7.03809 7.03809h2.34473v2.3457c0 3.88574 3.15137 7.03711 7.03809 7.03711z" />
    <glyph glyph-name="uniF119" unicode="&#xf119;" 
d="M501.837 366.279c21.46 -38.2334 7.81738 -86.8174 -30.4375 -108.285l-160.21 -89.8887c-7.65918 -4.33496 -16.082 -7.30469 -25.0176 -8.89648c-3.6123 -13.4785 -10.668 -25.7451 -20.4951 -35.5908l-129.917 -129.898
c-15.0098 -15.0205 -34.9854 -23.3037 -56.2314 -23.3037c-21.2471 0 -41.2119 8.2832 -56.2324 23.3037c-15.0127 15.0107 -23.2959 34.9932 -23.2959 56.2324c0 21.2383 8.27539 41.2031 23.2959 56.2422l103.843 103.858l10.8809 -10.8809l-103.855 -103.848
c-25.0176 -25.0098 -25.0176 -65.709 0 -90.7441c12.0996 -12.0908 28.2188 -18.7637 45.3721 -18.7637s33.2637 6.67285 45.3721 18.7637l129.908 129.927c6.63672 6.64453 11.7656 14.6855 14.9375 23.4258c-6.37305 0.223633 -12.7324 1.21191 -18.9756 2.95117
c-20.459 5.74219 -37.4434 19.1357 -47.8301 37.6562l-1.17285 2.06836l13.4111 7.53809l1.17285 -2.08496c8.3584 -14.9453 22.0869 -25.7246 38.5869 -30.3779c5.875 -1.63574 12.0908 -2.38184 18.2617 -2.35352c0.251953 2.40039 0.381836 4.5332 0.381836 6.54395
c0 17.1162 -6.67285 33.2451 -18.7812 45.3721c-11.9307 11.9131 -28.5176 18.7627 -45.5303 18.7627c-7.42773 0 -14.6963 -1.27637 -21.6396 -3.78906l-2.2627 -0.808594l-5.20312 14.4717l2.24414 0.80957c8.61035 3.08887 17.6191 4.65234 26.8145 4.65234
c21.0693 0 41.6484 -8.47852 56.4375 -23.249c15.0029 -15.0215 23.2852 -35.0039 23.2852 -56.2324c0 -1.47168 -0.0361328 -2.93066 -0.129883 -4.4209c5.1748 1.38574 10.1445 3.4248 14.8359 6.04883l160.203 89.915c14.9277 8.37598 25.707 22.0859 30.3408 38.6055
c4.65234 16.5186 2.58789 33.8203 -5.77051 48.7393c-11.3359 20.1963 -32.8164 32.7412 -56.0654 32.7412c-10.8994 0 -21.7227 -2.81934 -31.2725 -8.18945l-162.296 -91.0977l-7.52051 13.4111l162.28 91.0879c11.8486 6.66211 25.2676 10.1631 38.8008 10.1631
c28.8037 0 55.4336 -15.541 69.4766 -40.5879zM201.927 285.066c-5.22266 0 -9.45605 4.24414 -9.45605 9.45605v109.608c0 5.21191 4.2334 9.45605 9.45605 9.45605c5.20312 0 9.44727 -4.23438 9.44727 -9.45605v-109.608c0 -5.21191 -4.24414 -9.45605 -9.44727 -9.45605
zM46.9062 255.274c-5.21094 0 -9.44531 4.24414 -9.44727 9.45605c0 5.21094 4.23633 9.45508 9.44727 9.45508h109.627c5.2041 0 9.44824 -4.2334 9.44824 -9.45508c0 -5.22266 -4.24414 -9.45605 -9.44824 -9.45605h-109.627z" />
    <glyph glyph-name="uniF128" unicode="&#xf128;" 
d="M29.8906 407.451c-7 0 -12.6963 5.69531 -12.6963 12.6953s5.69531 12.6953 12.6963 12.6953s12.6963 -5.69531 12.6963 -12.6953s-5.69629 -12.6953 -12.6963 -12.6953zM29.8906 424.011c-2.13086 0 -3.86523 -1.7334 -3.86523 -3.86426
s1.7334 -3.86426 3.86523 -3.86426s3.86621 1.7334 3.86621 3.86426s-1.73438 3.86426 -3.86621 3.86426zM61.8828 407.451c-7 0 -12.6963 5.69531 -12.6963 12.6953s5.69629 12.6953 12.6963 12.6953c7.00098 0 12.6963 -5.69531 12.6963 -12.6953
s-5.69629 -12.6953 -12.6963 -12.6953zM61.8828 424.011c-2.13086 0 -3.86523 -1.7334 -3.86523 -3.86426s1.7334 -3.86426 3.86523 -3.86426s3.86621 1.7334 3.86621 3.86426s-1.73438 3.86426 -3.86621 3.86426zM93.875 407.451c-7 0 -12.6963 5.69531 -12.6963 12.6953
s5.69629 12.6953 12.6963 12.6953s12.6963 -5.69531 12.6963 -12.6953s-5.69629 -12.6953 -12.6963 -12.6953zM93.875 424.011c-2.13086 0 -3.86523 -1.7334 -3.86523 -3.86426s1.7334 -3.86426 3.86523 -3.86426s3.86621 1.7334 3.86621 3.86426
s-1.73438 3.86426 -3.86621 3.86426zM281.981 273.813c2.43848 0 4.41504 -1.97559 4.41504 -4.41504c0 -2.4375 -1.97559 -4.41504 -4.41504 -4.41504h-199.611c-2.43848 0 -4.41602 1.97754 -4.41602 4.41504c0 2.43848 1.97754 4.41504 4.41602 4.41504h199.611z
M498.552 253.316c7.41406 0 13.4482 -6.03223 13.4473 -13.4482v-289.043c0 -7.41602 -6.0332 -13.4482 -13.4482 -13.4482h-343.238c-7.41504 0 -13.4482 6.03223 -13.4482 13.4482v179.858h-128.417c-7.41406 0 -13.4473 6.03223 -13.4473 13.4482v289.043
c0 7.41602 6.0332 13.4482 13.4473 13.4482h343.239c7.41406 0 13.4473 -6.03223 13.4473 -13.4482v-179.858h128.418zM150.696 141.629v-170.827h352.474v190.398h-65.6914c-2.43848 0 -4.41504 1.97754 -4.41504 4.41504c0 2.43848 1.97656 4.41602 4.41504 4.41602
h65.6914v30.5635h-352.474v-50.1357h45.6504c2.43848 0 4.41504 -1.97656 4.41504 -4.41504s-1.97656 -4.41504 -4.41504 -4.41504h-45.6504zM503.17 239.868c0 2.54688 -2.07227 4.61816 -4.61816 4.61914h-343.238c-2.5459 0 -4.61719 -2.07129 -4.61719 -4.61816
v-30.4434h352.474v11.4932h-232.049c-2.43945 0 -4.41504 1.97754 -4.41504 4.41602c0 2.4375 1.97559 4.41504 4.41504 4.41504h232.049v10.1182zM155.313 253.316h205.989v101.19h-65.6895c-2.43945 0 -4.41504 1.97754 -4.41504 4.41504
c0 2.43848 1.97559 4.41602 4.41504 4.41602h65.6895v30.5635h-352.473v-50.1357h45.6494c2.43848 0 4.41602 -1.97656 4.41602 -4.41504s-1.97754 -4.41504 -4.41602 -4.41504h-45.6494v-170.827h133.035v70.4014h-59.4951c-2.43848 0 -4.41602 1.97754 -4.41602 4.41504
c0 2.43848 1.97754 4.41602 4.41602 4.41602h59.9658c1.53711 5.73438 6.76562 9.97559 12.9775 9.97559zM13.4473 437.793c-2.54492 0 -4.61719 -2.07129 -4.61719 -4.61816v-30.4434h352.473v11.4941h-232.047c-2.43848 0 -4.41602 1.97754 -4.41602 4.41602
c0 2.4375 1.97754 4.41504 4.41602 4.41504h232.047v10.1182c0 2.54688 -2.07129 4.61816 -4.61621 4.61816h-343.239zM13.4473 139.514h128.418v15.7637h-133.035v-11.1455c0 -2.54688 2.07129 -4.61816 4.61719 -4.61816zM498.552 -53.793
c2.5459 0 4.61816 2.07129 4.61816 4.61816v11.1455h-352.474v-11.1455c0 -2.54688 2.07129 -4.61816 4.61719 -4.61816h343.238zM171.757 239.535c7 0 12.6953 -5.69531 12.6953 -12.6953s-5.69531 -12.6953 -12.6953 -12.6953
c-7.00098 0 -12.6963 5.69531 -12.6963 12.6953s5.69629 12.6953 12.6963 12.6953zM171.757 222.976c2.13086 0 3.86523 1.7334 3.86523 3.86426s-1.73438 3.86426 -3.86523 3.86426c-2.13184 0 -3.86523 -1.7334 -3.86523 -3.86426s1.7334 -3.86426 3.86523 -3.86426z
M203.749 239.535c7 0 12.6953 -5.69531 12.6953 -12.6953s-5.69531 -12.6953 -12.6953 -12.6953c-7.00098 0 -12.6953 5.69531 -12.6953 12.6953s5.69531 12.6953 12.6953 12.6953zM203.749 222.976c2.13086 0 3.86523 1.7334 3.86523 3.86426
s-1.73438 3.86426 -3.86523 3.86426s-3.86523 -1.7334 -3.86523 -3.86426s1.73438 -3.86426 3.86523 -3.86426zM235.741 239.535c7 0 12.6953 -5.69531 12.6953 -12.6953s-5.69531 -12.6953 -12.6953 -12.6953s-12.6953 5.69531 -12.6953 12.6953
s5.69531 12.6953 12.6953 12.6953zM235.741 222.976c2.13184 0 3.86523 1.7334 3.86523 3.86426s-1.7334 3.86426 -3.86523 3.86426c-2.13086 0 -3.86523 -1.7334 -3.86523 -3.86426s1.73438 -3.86426 3.86523 -3.86426zM145.415 293.227
c-2.43945 0 -4.41504 1.97656 -4.41504 4.41504v39.9609c0 2.43848 1.97656 4.41504 4.41504 4.41504h134.761c2.43945 0 4.41504 -1.97656 4.41504 -4.41504v-39.9609c0 -2.43848 -1.97559 -4.41504 -4.41504 -4.41504h-134.761zM149.83 333.188v-31.1309h125.931v31.1309
h-125.931zM122.114 293.227h-43.3682c-2.43848 0 -4.41504 1.97656 -4.41504 4.41504v39.9609c0 2.43848 1.97656 4.41504 4.41504 4.41504h43.3682c2.43848 0 4.41504 -1.97656 4.41504 -4.41504v-39.9609c0 -2.43848 -1.97656 -4.41504 -4.41504 -4.41504z
M83.1611 333.188v-31.1309h34.5381v31.1309h-34.5381zM423.961 75.7334c2.43848 0 4.41504 -1.97559 4.41504 -4.41504c0 -2.43848 -1.97559 -4.41504 -4.41504 -4.41504h-199.611c-2.43848 0 -4.41504 1.97656 -4.41504 4.41504s1.97656 4.41504 4.41504 4.41504h199.611z
M423.961 45.2598c2.43848 0 4.41504 -1.97559 4.41504 -4.41504c0 -2.43848 -1.97559 -4.41504 -4.41504 -4.41504h-199.611c-2.43848 0 -4.41504 1.97656 -4.41504 4.41504s1.97656 4.41504 4.41504 4.41504h199.611zM287.395 95.1465
c-2.43848 0 -4.41504 1.97656 -4.41504 4.41504v39.96c0 2.43848 1.97656 4.41602 4.41504 4.41602h134.762c2.43945 0 4.41602 -1.97754 4.41602 -4.41602v-39.96c0 -2.43848 -1.97656 -4.41504 -4.41602 -4.41504h-134.762zM291.811 135.106v-31.1299h125.931v31.1299
h-125.931zM264.094 95.1465h-43.3682c-2.4375 0 -4.41504 1.97656 -4.41504 4.41504v39.96c0 2.43848 1.97754 4.41602 4.41504 4.41602h43.3682c2.43945 0 4.41504 -1.97754 4.41504 -4.41602v-39.96c0 -2.43848 -1.97559 -4.41504 -4.41504 -4.41504zM225.141 135.106
v-31.1299h34.5381v31.1299h-34.5381z" />
    <glyph glyph-name="uniF113" unicode="&#xf113;" 
d="M255.999 -63.999c-141.152 0 -255.999 114.837 -255.999 255.998c0 141.163 114.847 256.001 255.999 256.001c141.154 0 256.001 -114.838 256.001 -256.001c0 -141.161 -114.847 -255.998 -256.001 -255.998zM255.999 431.484
c-132.056 0 -239.483 -107.437 -239.483 -239.485s107.428 -239.483 239.483 -239.483c132.058 0 239.485 107.435 239.485 239.483s-107.428 239.485 -239.485 239.485zM271.533 317.936c0.418945 -12.5127 -8.75391 -22.5127 -23.335 -22.5127
c-12.9141 0 -22.0928 10 -22.0928 22.5127c0 12.9062 9.58887 22.916 22.915 22.916c13.7588 0 22.5127 -10.0078 22.5127 -22.916zM230.697 59.5742v201.688h36.665v-201.688h-36.665z" />
    <glyph glyph-name="uniF123" unicode="&#xf123;" 
d="M472.423 -48.9707c4.15039 0 7.51465 -3.36426 7.51465 -7.51465s-3.36426 -7.51465 -7.51465 -7.51465h-48.0938c-4.15039 0 -7.51465 3.36426 -7.51465 7.51465s3.36426 7.51465 7.51465 7.51465h16.5322v33.0645h-177.347v-33.0645h16.5322
c4.15039 0 7.51465 -3.36426 7.51465 -7.51465s-3.36426 -7.51465 -7.51465 -7.51465h-48.0938c-4.15039 0 -7.51465 3.36426 -7.51465 7.51465s3.36426 7.51465 7.51465 7.51465h16.5322v33.0645h-177.347v-33.0645h16.5322c4.15039 0 7.51465 -3.36426 7.51465 -7.51465
s-3.36426 -7.51465 -7.51465 -7.51465h-48.0938c-4.15039 0 -7.51465 3.36426 -7.51465 7.51465s3.36426 7.51465 7.51465 7.51465h16.5322v489.456c0 4.15039 3.36523 7.51465 7.51465 7.51465c4.15039 0 7.51465 -3.36426 7.51465 -7.51465v-8.5166h177.347v8.5166
c0 4.15039 3.36426 7.51465 7.51465 7.51465s7.51465 -3.36426 7.51465 -7.51465v-120.235v-32.5635h177.347v8.5166c0 4.15039 3.36426 7.51465 7.51465 7.51465c4.14941 0 7.51465 -3.36426 7.51465 -7.51465v-345.174h16.5322zM248.485 335.781v33.0645h-177.347
v-33.0645h177.347zM248.485 143.405v33.0645h-177.347v-33.0645h177.347zM263.515 176.47v-33.0645h177.347v33.0645h-177.347zM248.485 128.376h-177.347v-33.0645h177.347v33.0645zM263.515 128.376v-33.0645h177.347v33.0645h-177.347zM440.861 191.499v33.0645h-177.347
v-33.0645h177.347zM248.485 191.499v33.0645h-177.347v-33.0645h177.347zM71.1387 239.593h177.347v33.0645h-177.347v-33.0645zM71.1387 80.2822v-33.0654h177.347v33.0654h-177.347zM263.515 80.2822v-33.0654h177.347v33.0654h-177.347zM440.861 272.657h-177.347
v-33.0645h177.347v33.0645zM71.1387 287.687h177.347v32.5635v0.501953h-177.347v-33.0654zM248.485 416.939h-177.347v-33.0645h177.347v33.0645zM71.1387 -0.876953h177.347v33.0645h-177.347v-33.0645zM263.515 -0.876953h177.347v33.0645h-177.347v-33.0645z" />
    <glyph glyph-name="uniF14A" unicode="&#xf14a;" 
d="M85.6348 280.577l170.365 167.423l170.362 -167.423l-13.54 -13.3066l-147.257 144.733v-476.004h-19.1416v475.979l-147.246 -144.708z" />
    <glyph glyph-name="uniF11F" unicode="&#xf11f;" 
d="M373.083 334.123l-5.28516 3.31641l-3.70703 2.53809v3.72754l2.15918 3.30566l7.69727 1.56934l1.95801 -9.38184l4.0957 -6.63379l2.72754 -3.1377l4.98047 -1.9375l-4.68555 -5.57031l-9.07617 -0.874023h-6.82324l0.757812 8.09766l5.69629 1.17871zM366.523 331.006
l-9.64453 -6.83398h-5.46484v4.87598l4.68555 7.51758l6.31738 1.46387l4.51758 -1.94824zM236.483 309.452l2.68555 0.0527344l3.06348 -0.631836l-1.31641 -2.7168l-3.33789 -0.28418l-0.673828 -3.23242l-2.5791 -1.60059l-4.12793 -0.347656
c-0.136719 0.96875 -0.231445 1.70605 -0.231445 1.70605h-1.60059v3.47461h6.72852zM219.142 303.145l2.18945 2.72754l2.92773 -2.30566l-0.505859 -3.41211l-4.875 -0.410156zM511.937 194.648c0.0107422 -0.884766 0.0634766 -1.75879 0.0527344 -2.64355
c0 -15.2568 -1.41113 -30.209 -3.99023 -44.75c-0.90625 -5.10742 -1.94824 -10.1504 -3.15918 -15.1729c-4.75977 -19.7852 -11.8242 -38.665 -20.9014 -56.376c-42.4336 -82.8467 -128.64 -139.706 -227.934 -139.706c-141.159 0 -256.005 114.835 -256.005 256.005
c0 58.7871 19.9639 112.972 53.4062 156.228c8.86523 11.4561 18.6367 22.1543 29.2715 31.957c45.6357 42.0654 106.507 67.8105 173.317 67.8105c66.252 0 126.691 -25.292 172.2 -66.7256c4.02246 -3.6748 7.90723 -7.50781 11.6875 -11.4355
c1.33789 -1.36816 2.6748 -2.75879 3.99121 -4.16992c20.0166 -21.6172 36.3691 -46.667 48.0146 -74.1807c0.694336 -1.61035 1.29492 -3.26367 1.94824 -4.89551c8.73926 -21.9229 14.5723 -45.3096 16.9414 -69.7061c0.706055 -7.31836 1.08496 -14.752 1.1582 -22.2383z
M463.754 296.964v-10.3926l4.56934 0.631836l2.42188 -0.0947266c-1.7373 3.89551 -3.55859 7.73926 -5.50684 11.5195zM426.764 341.631l-10.0986 -5.12793l1.01074 -3.35938l16.1211 -0.147461l4.6123 6.86523c-3.70703 4.54883 -7.58203 8.93945 -11.6035 13.2041z
M117.952 370.05v0l-0.0107422 -4.69629h11.5615l2.41113 3.22168v3.66504h-8.3916l-0.442383 -1.75879h-5.12793v-0.431641zM126.145 358.625l-8.19238 -2.33789l2.20117 -2.63184l11.5605 0.726562s0.442383 5.11719 0 5.11719
c-0.441406 0 -5.56934 -0.874023 -5.56934 -0.874023zM480.063 257.004l1.27441 1.17969c-1.86328 6.32812 -3.99023 12.5303 -6.35938 18.627l-12.2461 -0.210938l-6.13867 6.73926l-1.17969 10.835l-6.28613 -3.43262l-3.37988 -13.2461l-9.07617 9.66602
l-0.369141 9.12891l-8.76074 7.5498l-3.25293 3.22168h-10.1719l3.22168 -9.06543l12.2354 -6.82324l2.12695 -2.25391l-2.64258 -1.32617l0.126953 -7.18164l-5.95996 -2.48438l-5.08594 1.11621l-3.17969 4.50586l8.26562 -0.441406l2.24219 3.01074l-18.3418 12.3721
l-1.39062 5.26562l-7.4541 -6.73926l-7.57129 1.54785l-11.498 -14.9414l-2.24316 -5.85449l-7.36035 -0.663086l-10.8975 -0.0634766l-6.49707 3.04297l-1.91602 12.9307l2.34766 6.15918l11.0664 2.42188l12.0674 -2.42188l1.48438 6.68652l-5.12793 1.21094
l1.75879 10.4033l12.1504 1.90625l8.49805 12.0029l8.78125 1.47461l7.91797 -1.16895h2.90625l-1.58984 11.2666l-9.64453 -3.88574l-3.37012 8.42383l-5.59082 0.779297l-1.05273 5.78125l4.56934 4.95898l10.835 4.24316l2.79004 4.99121
c-41.4121 36.4854 -95.6924 58.6914 -155.1 58.6914c-51.543 0 -99.2314 -16.7207 -138.012 -44.9717l11.8457 0.0947266l5.27539 -2.92676l9.95117 -2.14844l0.768555 -3.90625l15.8252 -0.589844l-2.14746 5.0752l-14.0566 0.389648l3.29492 3.06445l-1.1582 3.7168
h-12.6982l13.8564 10.3506h13.2783l6.24414 -8.5918l10.3604 -0.589844l6.24414 6.06543l4.69629 -2.34863l-8.60254 -8.40234s-11.8984 -0.200195 -11.3193 -0.200195s0.979492 -8.19238 0.979492 -8.19238l14.4355 0.400391l1.55859 3.89551l9.9502 0.589844
l1.16895 5.85449l-5.85449 0.990234l1.94824 5.26465l4.48535 1.3584l15.6152 -0.779297l-8.60254 -7.8125l1.37988 -6.04395l8.98145 -1.36914l-0.589844 10.9297l8.59277 4.49609l15.2256 1.75781l22.0596 -9.77051v-8.39258l7.0332 -1.75879l-3.5166 -6.63281h-9.9502
l-2.94824 -7.61328l-22.7656 5.37012l17.8896 9.5293l-6.82324 5.79102l-15.4258 -1.94824l-1.34766 -1.38965l-0.0527344 0.0214844l-0.242188 -0.336914l-4.43262 -4.6123l-7.33887 -0.621094l0.589844 -3.66406l2.56934 -1.06348l-0.105469 -1.21094l-5.9707 -0.853516
l-0.442383 -3.46387l-5.70703 -0.294922l-1.03125 6.88672l-10.2461 -3.11719l-20.9424 -12.2559l2.3584 -8.62402l5.85449 -3.81152l11.709 -1.62207v-13.3096l5.41211 0.874023l4.99121 10.4033l12.4561 3.94922v15.9619l6.92871 5.2334l16.7422 -3.94824l-1.17969 -10.54
h4.48535l12.2988 6.04395l0.589844 -13.8467l8.9707 -5.46484l-0.378906 -8.21289l-8.58203 -2.92676l0.589844 -2.7168l10.3398 -4.70703l-0.199219 -5.6543l-3.00098 -0.25293l-0.0322266 0.158203l-13.0459 4.02246l-0.557617 4.17969h-0.0107422l3.81152 2.62207
v3.81152l-4.10645 1.03223l-1.02148 -3.5166l-7.20215 -1.10547l-0.71582 0.242188v-0.358398l-2.48535 -0.378906l-2.03223 4.10645l-2.34766 1.03223h-5.12793l-2.32715 -1.90625v-4.21191l4.39062 -1.46387l4.32812 -0.610352l-0.96875 -0.431641l-3.94922 -4.38086
l-1.74805 2.19043l-3.81152 1.01074l-10.4033 -9.79199l1.3584 -1.11621l-15.3623 -8.50781l-14.4463 -15.0361l-0.990234 -6.69727l-14.4883 -9.51855l-7.18164 -7.22363l0.790039 -14.4463l-9.96094 4.63281l0.0732422 8.45508l-27.7139 -0.00976562l-14.3516 -7.26562
l-6.2334 -11.4883l-2.46387 -9.10742l4.03223 -8.83496l11.3096 -1.37891l17.9736 12.0137l1.56934 -5.94922l-5.48633 -10.3604l13.6777 -2.33789l1.3584 -21.1221l18.7432 -3.17969l11.9082 13.7617l14.457 -2.9375l5.0752 -7.06543l13.8574 0.821289l0.389648 4.10645
l7.6123 -3.7168l8.57129 -13.457l14.8359 -0.220703l5.47559 -9.57129l0.779297 -11.6992l16.4053 -6.25391l20.6904 -0.210938l6.05469 -9.92969l9.1709 -2.9375l-1.75781 -8.20215l-10.0566 -12.7725l-2.92676 -28.2822l-9.06641 -7.18164l-13.4668 0.411133
l-4.49609 -7.80273l3.32715 -14.6572l-14.6465 -18.7422l-4.68555 -8.59277l-13.9619 -6.70703l-9.18262 -1.38965l-0.378906 -3.89648l6.44434 -1.84277l-0.779297 -4.19043l-5.77051 -5.54883l3.50684 -4.40137l6.94922 -0.210938l-0.389648 -5.37012l-1.84277 -5.26465
l-0.588867 -4.2959l10.2764 -8.65527l-1.36914 -4.49609l-13.9824 0.25293l-13.9102 12.1504l-10.835 19.0488l1.5166 18.3838l-8.20312 10.9404l3.31738 18.5537l-4.875 1.36816v40.2129s-13.668 10.3506 -14.4473 10.3506c-0.789062 0 -7.2334 1.74805 -7.2334 1.74805
l-1.3584 7.62305l-17.7734 22.249l1.75781 8.00195l0.579102 13.0781l12.2881 8.5918l-1.75781 14.6475l-17.9531 1.35742l-14.0576 16.0156l-9.9502 2.7168l-6.44434 1.17969l0.779297 5.85449l-8.20215 1.16797v-3.31641l-20.501 5.0752l-8.25488 12.625l3.34766 6.11816
l-12.9824 18.9424l-2.22168 13.8564h-5.26465l1.75781 -13.4668l8.98145 -13.8574l-0.978516 -5.47461l-7.61328 1.16797l-9.36035 15.9736v18.585l-9.76074 4.69629v13.3721c2.55859 5.99121 5.37988 11.8252 8.40234 17.5322l9.75 11.8457l-0.378906 4.26465
c-3.33789 -5.2334 -6.46484 -10.6035 -9.38184 -16.1104l-8.40234 -10.2031v-7.3291c-12.0566 -28.251 -18.7529 -59.334 -18.7529 -91.9443c0 -129.545 105.39 -234.945 234.925 -234.936c73.4434 0 139.085 33.916 182.214 86.8691h-7.75v15.6045l-8.9707 12.0674v18.7842
l-6.83398 6.81348l-0.589844 7.8125l8.67676 16.584l-16.4785 29.0938l1.96875 19.7422l-14.8467 1.53809l-5.46484 5.47461h-9.96094l-5.06445 -4.68555h-17.5635l-0.589844 -1.55859h-9.77148l-22.4492 25.5664l0.200195 19.9219l3.70605 1.3584l1.37988 7.62305h-5.26465
l-2.15918 8.00293l25.9766 18.7422v13.2773l12.709 7.05566l5.12793 -0.516602h10.4668l8.1709 4.39062l26.3662 2.05371v-13.4775l20.8066 -5.27539l4.10645 -2.92773h3.80078v7.3291l12.0146 1.16895l11.4141 -8.49805h18.7314zM139.633 331.69l3.79004 -7.77051
l6.00195 1.90527l1.91699 7.46582l-5.55957 1.32617zM172.264 314.116v-4.83301h-14.0469l-5.26465 1.46387l1.31641 3.36914l6.75 2.79102h9.22363v-2.79102h2.02148zM178.729 307.378h-7.89648v-7.76074l4.37988 0.810547l3.5166 2.26465v4.68555zM174.77 309.283v5.57031
l4.83301 -4.40137zM176.971 298.017l-5.40234 -0.74707l-0.726562 -1.75879l-3.52734 -0.305664l-1.16895 -5.11719h7.46582l3.35938 3.37012v4.55859zM158.375 307.378l-5.41211 -5.85449l-0.884766 -5.85449l4.10645 -2.20117l9.95117 13.9102h-7.76074zM190.153 299.617
v-4.54883h-7.46582l-2.04199 2.94824v4.2334h0.588867zM183.257 305.872l2.84277 -2.36914l2.87402 2.36914l-3.58984 2.23242zM483.876 245.148l1.66309 -3.13867c-0.294922 1.34863 -0.621094 2.6748 -0.926758 4.00195zM39.8232 291.278l8.40234 10.2031
c-3.02246 -5.71777 -5.84375 -11.5508 -8.40234 -17.5322v7.3291z" />
    <glyph glyph-name="uniF141" unicode="&#xf141;" 
d="M256 320c71.6797 0 128 -56.3203 128 -128s-56.3203 -128 -128 -128s-128 56.3203 -128 128s56.3203 128 128 128zM256 448c140.8 0 256 -115.2 256 -256s-115.2 -256 -256 -256s-256 115.2 -256 256s115.2 256 256 256zM256 -12.7998
c112.64 0 204.8 92.1602 204.8 204.8s-92.1602 204.8 -204.8 204.8s-204.8 -92.1602 -204.8 -204.8s92.1602 -204.8 204.8 -204.8z" />
    <glyph glyph-name="uniF149" unicode="&#xf149;" 
d="M367.144 248.013c1.7168 -4.0498 -0.166016 -8.75098 -4.2168 -10.4678c-4.0498 -1.71582 -8.75098 0.166992 -10.4678 4.2168c-2.2002 5.16699 -4.91797 10.1504 -8.06641 14.8174c-3.18359 4.71777 -6.81641 9.10059 -10.7676 13.0674l-0.0175781 -0.0166016
c-4.01758 4.0166 -8.40137 7.65039 -13.0684 10.7842c-4.69922 3.18457 -9.65039 5.90039 -14.751 8.06738c-4.05078 1.69922 -5.9502 6.38379 -4.25 10.4336c1.69922 4.0498 6.38379 5.9502 10.4336 4.25c6.23242 -2.65039 12.1162 -5.85059 17.5166 -9.50098
c5.60059 -3.7666 10.7842 -8.0498 15.4502 -12.7168l-0.0175781 -0.0166016l0.0175781 -0.0175781c4.71777 -4.71582 9.00098 -9.90039 12.7002 -15.3994c3.67188 -5.4502 6.87207 -11.3174 9.50488 -17.501zM417.965 246.945
c1.13184 -4.2666 -1.40039 -8.65039 -5.66797 -9.7832c-4.2666 -1.13379 -8.65039 1.39941 -9.7832 5.66699c-3.08301 11.417 -7.66699 22.3506 -13.5508 32.502c-5.88281 10.1504 -13.167 19.6006 -21.6016 28.0518c-8.44922 8.4502 -17.9004 15.7334 -28.0518 21.6172
c-10.1338 5.88379 -21.0684 10.4668 -32.502 13.5342c-4.26758 1.13281 -6.80078 5.51758 -5.66602 9.78418c1.13184 4.26758 5.51758 6.7998 9.7832 5.66699c12.7686 -3.4502 25.001 -8.58398 36.3691 -15.168c11.4678 -6.65039 22.0352 -14.7676 31.3848 -24.1182
c9.35156 -9.35156 17.4688 -19.918 24.1016 -31.3848c6.59961 -11.3672 11.7334 -23.6016 15.1846 -36.3691zM467.134 246.412c0.833008 -4.33301 -1.9834 -8.53418 -6.31836 -9.36719c-4.33301 -0.833984 -8.5332 1.98242 -9.36621 6.31641
c-3.5166 17.7012 -9.65039 34.7021 -18.1182 50.4863l-0.216797 0.416992c-8.43457 15.6348 -19.1846 30.1016 -31.9678 42.8857l-0.0341797 0.0332031c-12.8838 12.8682 -27.502 23.7178 -43.2861 32.1689c-15.751 8.43359 -32.7852 14.584 -50.5029 18.1172
c-4.33398 0.833984 -7.15039 5.0498 -6.31738 9.36719c0.850586 4.33301 5.05078 7.15039 9.36719 6.31641c19.2344 -3.81641 37.7363 -10.5342 54.9541 -19.7344c17.2178 -9.23438 33.1025 -21.0186 47.0518 -34.9521l0.0341797 -0.0332031
c13.8164 -13.834 25.502 -29.5527 34.7021 -46.5859l0.25 -0.451172c9.25098 -17.1982 15.9346 -35.7158 19.7686 -54.9844zM508.586 29.5156c3.55078 -2.60059 4.31738 -7.60156 1.71875 -11.1514c-2.60059 -3.5498 -7.60254 -4.31641 -11.1523 -1.71777l-124.707 91.4072
l-8.08496 -8.08301l-12.917 -12.918c-30.7354 -30.7354 -76.8379 -23.4678 -119.274 2.36621c-15.917 9.68457 -31.3359 21.9854 -45.1191 35.7695c-13.7676 13.7842 -26.085 29.2012 -35.7686 45.1191c-25.8682 42.4531 -33.2188 88.5391 -2.66602 119.074l21.2334 21.2344
l-85.9062 117.241l-38.7861 -38.5029l0.0166016 -0.0166016l-0.333008 -0.333008c-30.4521 -30.4521 -38.4365 -70.8379 -22.835 -119.841c16.2002 -50.8867 57.4199 -110.925 124.758 -178.762l2.7168 -2.7334l0.0166016 0.0166016
c4.60156 -4.60059 8.38379 -8.34961 11.335 -11.2012c65.3877 -63.4033 123.508 -102.239 172.812 -117.323c47.4863 -14.5342 86.6885 -6.66699 116.107 22.7686l0.400391 0.382812l0.951172 0.950195l10.2656 10.6006c3.06738 3.15234 8.13477 3.21777 11.2842 0.151367
c3.15137 -3.06738 3.2168 -8.13477 0.150391 -11.2842l-10.2656 -10.6006l-0.0341797 -0.0332031l-0.983398 -0.985352l-0.450195 -0.5c-33.8848 -33.9023 -78.4727 -43.1025 -132.058 -26.7012c-51.7529 15.834 -112.074 55.9531 -179.312 121.141
c-4.63379 4.4834 -8.48242 8.2832 -11.5166 11.3174l0.0175781 0.0175781l-0.0175781 0.0175781l-2.7334 2.75c-69.1562 69.6699 -111.659 131.89 -128.644 185.193c-17.5684 55.1875 -8.2334 101.023 26.7178 135.976l0.333008 0.333008l0.0166016 -0.0166016
l0.0175781 0.0166016l45.3701 45.0361c0.283203 0.283203 0.583984 0.533203 0.900391 0.766602c3.5498 2.60059 8.55078 1.83398 11.1504 -1.7168l95.1055 -129.741c2.7002 -3.13379 2.56738 -7.90039 -0.400391 -10.8672l-26.085 -26.0859
c-24.3008 -24.3008 -17.2002 -63.0371 4.98438 -99.4395c8.9668 -14.7344 20.4668 -29.1182 33.4688 -42.1191c13.001 -13.001 27.3848 -24.501 42.1025 -33.4521c36.4014 -22.1689 75.1543 -29.1689 99.6387 -4.68457l12.918 12.917l12.917 12.917l0.0166016 -0.0166016
c2.73535 2.7334 7.13379 3.15039 10.3516 0.799805zM473.817 -5.26953c3.5498 -2.59863 4.31641 -7.60059 1.7168 -11.1504c-2.59863 -3.55078 -7.60059 -4.31836 -11.1504 -1.71777l-32.5693 23.8496l-32.5674 23.8701l-32.5684 23.8682
c-3.55078 2.59863 -4.31738 7.59961 -1.7168 11.1514c2.59863 3.5498 7.59961 4.31641 11.1504 1.71582l32.5684 -23.8682l32.5674 -23.8672zM45.6729 400.556c-2.60059 3.5498 -1.83398 8.55078 1.7168 11.1504c3.55078 2.60059 8.55078 1.83398 11.1504 -1.7168
l23.8506 -32.5684l23.8691 -32.5527l23.8682 -32.5684c2.59961 -3.55078 1.83301 -8.55176 -1.71777 -11.1504c-3.5498 -2.59961 -8.55078 -1.83398 -11.1504 1.71582l-23.8516 32.5859l-23.8682 32.5527z" />
    <glyph glyph-name="uniF139" unicode="&#xf139;" 
d="M452.923 150.646c35.4463 -17.7236 59.0771 -55.1396 59.0771 -96.4912c0 -59.0781 -49.2314 -108.309 -108.309 -108.309c-33.4766 0 -63.0146 15.7539 -82.707 39.3848h-281.6c-21.6621 0 -39.3848 17.7236 -39.3848 39.3848v374.153
c0 21.6611 17.7227 39.3848 39.3848 39.3848h374.153c21.6611 0 39.3848 -17.7227 39.3848 -39.3848v-248.123zM19.6924 398.77v-59.0771h413.538v59.0771c0 11.8154 -7.87695 19.6924 -19.6924 19.6924h-374.153c-11.8154 0 -19.6924 -7.87695 -19.6924 -19.6924z
M39.3848 4.92383h267.814c-7.87695 15.7529 -11.8154 31.5068 -11.8154 49.2305c0 59.0771 49.2314 108.308 108.308 108.308c9.84668 0 19.6934 -1.96875 29.5391 -3.93848v161.478h-413.538v-295.385c0 -11.8154 7.87695 -19.6924 19.6924 -19.6924zM403.691 -34.4609
c49.2314 0 88.6152 39.3848 88.6152 88.6152c0 49.2295 -39.3848 88.6143 -88.6152 88.6143c-49.2295 0 -88.6143 -39.3848 -88.6143 -88.6143c0 -49.2305 39.3848 -88.6152 88.6143 -88.6152zM334.77 44.3076v19.6914h137.846v-19.6914h-137.846z" />
    <glyph glyph-name="uniF13D" unicode="&#xf13d;" 
d="M464.361 394.883c0.242188 -2.65527 -0.584961 -5.2334 -2.32422 -7.2627l-45.1162 -56.9033c-1.90332 -2.21973 -4.68848 -3.48828 -7.63965 -3.48047c-2.24707 0.00585938 -4.44336 0.773438 -6.18945 2.15918l-55.6016 44.1709
c-2.07617 1.64941 -3.37793 4.01074 -3.66406 6.64844c-0.287109 2.6377 0.477539 5.22266 2.15234 7.2793l44.9473 56.8623c1.89062 2.32324 4.70117 3.65234 7.70605 3.64355c2.25195 -0.00585938 4.45117 -0.788086 6.19727 -2.20312l55.9414 -44.1885
c2.0752 -1.68359 3.35156 -4.07031 3.59082 -6.72559zM408.908 341.554l40.9199 52.0127l-50.7578 39.9873l-40.8027 -51.7715zM47.8633 -43.0205l13.2373 81.7783l87.0225 -68.251l-76.3477 -33.2959c-3.86719 -1.58789 -13.7676 -2.99121 -20.1055 5.27441
c-3.18848 4.1582 -4.7334 9.30957 -3.80664 14.4941zM122.701 -26.249l-52.1904 40.9287l-9.71289 -59.9941c-0.326172 -1.78125 0.285156 -3.11035 0.975586 -3.80371c2.35449 -2.37207 4.6543 -1.6377 5.1875 -1.44727zM325.112 374.717l85.4141 -66.9863
l-258.984 -330.231l-85.4141 66.9863zM363.891 327.611l-10.9668 8.59961l-77.8096 -100.07l11.54 -8.91895zM392.083 305.501l-17.8574 14.002l-85.1895 -110.729l-32.3789 25.0303l85.9297 110.512l-15.2441 11.9561l-242.772 -309.558l64.7412 -50.7725z" />
    <glyph glyph-name="uniF13F" unicode="&#xf13f;" 
d="M489.739 324.148c1.5957 -2.74902 2.34766 -6.3125 2.35059 -10.8994c0 -60.5547 -162.771 -377.251 -237.188 -377.251c-78.8164 0 -234.986 331.011 -234.986 380.377c0 3.46777 0.553711 6.23438 1.71582 8.41309c1.7666 3.34766 4.91895 5.26172 8.65137 5.26172
c13.3477 0 54.166 25.9893 93.624 51.1426c51.6221 32.8672 104.908 66.8076 130.992 66.8076c24.6836 0 70.2393 -29.7139 118.437 -61.1611c42.79 -27.9121 87.0234 -56.7891 106.189 -56.7891c4.38184 0 8.01855 -2.09961 10.2148 -5.90137zM254.898 -51.1729
c45.5391 0 144.674 161.27 195.724 276.907c28.7236 65.0723 30.167 87.9014 28.2705 91.6338c-23.2568 0.444336 -66.6455 28.7666 -112.552 58.7363c-42.4912 27.6973 -90.5674 59.085 -111.442 59.085c-22.3418 0 -76.3223 -34.3779 -123.947 -64.7246
c-43.1475 -27.4756 -80.3428 -51.168 -98.3896 -53.1064c-3.04785 -20.3281 50.6152 -147.74 115.551 -252.641c45.5918 -73.6475 84.5039 -115.891 106.786 -115.891zM252.293 129.81c18.373 0 31.7139 -13.8799 31.7021 -33.0537
c0 -18.9248 -13.46 -32.6846 -32.0361 -32.6846c-18.0732 0 -31.6953 14.0586 -31.6953 32.6846c0 19.1738 13.4619 33.0537 32.0293 33.0537zM251.968 73.7627c12.9326 0 22.335 9.67676 22.333 22.9844c0 13.5195 -9.25 23.3418 -22.001 23.3418
c-12.9297 0 -22.3252 -9.82227 -22.3252 -23.3418c0 -13.0947 9.46484 -22.9844 21.9932 -22.9844zM257.283 330.63c46.7344 0 67.6426 -30.626 67.6709 -61.0176c0 -26.1777 -13.6152 -44.4795 -31.4297 -65.6621c-12.3174 -14.5361 -16.9727 -26.2705 -16.1953 -40.415
l0.368164 -8.89941c0.111328 -3.26953 -1.08398 -6.51465 -3.33887 -8.85645c-2.28906 -2.34766 -5.44141 -3.70605 -8.7207 -3.70605h-25.9551c-6.28613 0 -11.5723 4.91113 -12.0684 11.1543l-0.666016 8.6875c-2.43457 21.9932 5.62695 44.8994 23.376 66.2344
c12.999 15.2207 20.5332 26.2891 20.5332 37.8281c0 11.042 -6.28613 16.3047 -19.7559 16.543c-9.40527 0 -19.9082 -3.16895 -26.084 -7.8584c-2.95508 -2.24609 -7.14062 -3.04004 -10.7275 -1.96387c-3.5625 1.0166 -6.50781 3.73926 -7.875 7.27637l-7.99512 20.9414
c-1.94043 5.08984 -0.214844 10.8799 4.19336 14.0918c13.0586 9.49805 34.5205 15.6221 54.6699 15.6221zM267.623 163.034c-0.990234 16.8936 4.33203 30.5586 18.4141 47.2168c16.5273 19.6523 29.1758 36.5039 29.1758 59.4014
c0 25.5215 -17.9014 51.2881 -57.9424 51.2881c-18.2354 0 -37.46 -5.42383 -48.9561 -13.7939c-0.854492 -0.613281 -1.20312 -1.74219 -0.828125 -2.74902l8.02051 -20.9248c0.265625 -0.708984 0.819336 -1.24805 1.53711 -1.44336
c0.804688 -0.224609 1.41797 -0.112305 2.07617 0.374023c7.7207 5.89551 20.6172 9.83984 32.0625 9.83984h0.00976562c18.918 -0.317383 29.3467 -9.63379 29.3467 -26.2461c0 -14.5195 -8.35254 -27.1709 -22.7793 -44.0977
c-15.9795 -19.2334 -23.2988 -39.6641 -21.1396 -59.0684l0.666016 -8.83203c0.102539 -1.23926 1.11035 -2.19629 2.375 -2.19629h25.9551c0.632812 0 1.25586 0.265625 1.68262 0.751953c0.453125 0.453125 0.692383 1.08398 0.692383 1.74219z" />
    <glyph glyph-name="uniF135" unicode="&#xf135;" 
d="M131.038 -64l-13.6475 14.0645l249.112 241.928l-249.112 241.967l13.6475 14.041l263.571 -256.008z" />
    <glyph glyph-name="uniF125" unicode="&#xf125;" 
d="M446.043 268.38c19.9111 0 36.0791 -16.168 36.0898 -36.04v-141.569c0 -19.9043 -16.1689 -36.0723 -36.0801 -36.0723h-8.91797c0.566406 -15.2051 -1.58398 -42.4229 -20.3887 -65.1426c-15.8721 -19.1299 -39.96 -30.6299 -71.5771 -34.5791
c-2.7002 -10.8965 -12.4619 -18.9766 -24.168 -18.9766h-37.835c-13.7646 0 -24.9678 11.168 -24.9678 24.96c0 13.8027 11.2012 24.9678 24.9678 24.9678h37.8174c8.77148 0 16.5 -4.5459 20.9277 -11.4365c26.7598 3.23047 46.7617 12.3896 59.4209 27.5693
c15.1797 18.2275 16.4395 41.1006 15.8984 52.8691l-17.5703 0.485352c-16.7363 3.40918 -28.8926 18.2646 -28.8926 35.3506v141.569c0 19.877 16.168 36.0449 36.0801 36.0449h11.6152c-8.11523 89.5596 -78.7998 159.796 -164.503 159.796
s-156.388 -70.2256 -164.53 -159.796h15.6924c19.9043 0 36.0723 -16.168 36.0723 -36.0449v-141.569c0 -19.9043 -16.1699 -36.0723 -36.0723 -36.0723h-39.1846c-19.877 0 -36.0723 16.1709 -36.0723 36.0723v141.569c0 19.877 16.1953 36.0449 36.0723 36.0449h3.68066
c8.26855 100.504 87.7197 179.62 184.352 179.62c96.6094 0 176.065 -79.1162 184.327 -179.62h7.74609zM121.391 232.338c0 8.9502 -7.30566 16.2305 -16.2578 16.2236h-39.1855c-8.98047 0 -16.2588 -7.27148 -16.2588 -16.2236v-141.569
c0 -8.94336 7.27832 -16.2588 16.2588 -16.2588h39.1855c8.95215 0 16.2578 7.31543 16.2578 16.2588v141.569zM462.301 90.7686v141.569c0 8.94531 -7.30566 16.2236 -16.2588 16.2236h-39.1748c-8.95215 0 -16.2578 -7.27148 -16.2578 -16.2236v-141.569
c0 -7.44922 5.11035 -13.9463 12.2354 -15.7461l43.1982 -0.512695c8.95215 0 16.2578 7.31543 16.2578 16.2588z" />
    <glyph glyph-name="uniF146" unicode="&#xf146;" 
d="M255.999 -63.999c-141.152 0 -255.999 114.837 -255.999 255.998c0 141.163 114.847 256.001 255.999 256.001c141.154 0 256.001 -114.838 256.001 -256.001c0 -141.161 -114.847 -255.998 -256.001 -255.998zM255.999 431.484
c-132.056 0 -239.483 -107.437 -239.483 -239.485s107.428 -239.483 239.483 -239.483c132.058 0 239.485 107.435 239.485 239.483s-107.428 239.485 -239.485 239.485zM128.835 177.742v16.5127h265.295v-16.5127h-265.295z" />
    <glyph glyph-name="uniF118" unicode="&#xf118;" 
d="M467.864 359.728c24.3369 0 44.1357 -19.7969 44.1357 -44.1348v-247.186c0 -24.3379 -19.7988 -44.1357 -44.1357 -44.1357h-423.729c-24.3369 0 -44.1357 19.7979 -44.1357 44.1357v247.186c0 24.3359 19.7988 44.1348 44.1357 44.1348h423.729zM44.1357 346.711
c-17.1582 0 -31.1182 -13.96 -31.1182 -31.1182v-27.915h485.966v27.915c0 17.1582 -13.9619 31.1182 -31.1191 31.1182h-423.729zM467.864 37.2891c17.1592 0 31.1191 13.959 31.1182 31.1182v187.814h-485.966v-187.814c0 -17.1592 13.9609 -31.1182 31.1191 -31.1182
h423.729zM155.519 183.767c13.9629 0 25.3223 -11.3594 25.3223 -25.3223v-30.1016c0 -13.9619 -11.3594 -25.3223 -25.3223 -25.3223h-75.959c-13.9629 0 -25.3223 11.3604 -25.3223 25.3223v30.1016c0 13.9629 11.3594 25.3223 25.3223 25.3223h75.959zM167.824 128.343v0
v30.1016c0 6.7832 -5.52051 12.3047 -12.3057 12.3047h-75.959c-6.78516 0 -12.3057 -5.52148 -12.3057 -12.3047v-30.1016c0 -6.78418 5.52051 -12.3057 12.3057 -12.3057h75.959c6.78516 0 12.3057 5.52148 12.3057 12.3057zM452.833 183.767
c3.5957 0 6.50781 -2.91602 6.50781 -6.50879s-2.91504 -6.50879 -6.50781 -6.50879h-211.809c-3.59375 0 -6.50781 2.91602 -6.50781 6.50879s2.91406 6.50879 6.50781 6.50879h211.809zM342.773 132.971c3.59473 0 6.50879 -2.91406 6.50879 -6.50781
s-2.91602 -6.50879 -6.50879 -6.50879h-101.749c-3.59375 0 -6.50879 2.91504 -6.50879 6.50879s2.91504 6.50781 6.50879 6.50781h101.749z" />
    <glyph glyph-name="uniF130" unicode="&#xf130;" 
d="M0 353.648h512v-323.297h-512v323.297zM490.361 332.01h-468.73v-16.0225l234.37 -164.855l234.36 164.873v16.0049zM21.6309 51.9805h468.721v237.564l-228.161 -160.481c-1.86035 -1.33301 -4.0166 -1.97754 -6.19922 -1.97754
c-2.18164 0 -4.36621 0.652344 -6.22656 1.97754l-228.134 160.472v-237.555z" />
    <glyph glyph-name="uniF11C" unicode="&#xf11c;" 
d="M256.004 15.6885l-253.629 333.944c-3.88477 5.12109 -2.90918 12.4033 2.23535 16.292c5.12109 3.9082 12.4033 2.90918 16.292 -2.23535l235.102 -309.528l235.102 309.528c3.88477 5.14453 11.1709 6.14355 16.292 2.23535
c5.12109 -3.88477 6.12012 -11.1709 2.23535 -16.292z" />
    <glyph glyph-name="uniF131" unicode="&#xf131;" 
d="M256 376.448c69.376 0 125.824 -56.4482 125.824 -125.803c0 -69.376 -56.4482 -125.824 -125.824 -125.824s-125.824 56.4482 -125.824 125.824c0 69.3545 56.4482 125.803 125.824 125.803zM256 141.888c59.9893 0 108.758 48.79 108.758 108.758
c0 59.9463 -48.7686 108.735 -108.758 108.735s-108.758 -48.7676 -108.758 -108.735s48.7686 -108.758 108.758 -108.758zM256 435.094c101.718 0 184.448 -82.7314 184.49 -184.448c0 -99.2646 -170.837 -290.795 -178.111 -298.901
c-1.62109 -1.81348 -3.94727 -2.83789 -6.35742 -2.83789c-2.41113 0 -4.73633 1.0459 -6.35742 2.83789c-7.27441 8.10645 -178.112 199.637 -178.112 298.901c0 101.717 82.7305 184.448 184.448 184.448zM256 -29.6318c31.2959 36.0957 167.381 197.76 167.381 280.277
c0 92.2881 -75.0928 167.381 -167.381 167.381s-167.381 -75.0928 -167.381 -167.381c0 -82.5605 136.063 -244.203 167.381 -280.277z" />
    <glyph glyph-name="uniF148" unicode="&#xf148;" 
d="M409.6 366.08l102.4 -163.84v-10.2393v-174.08h-512v174.08v10.2393l102.4 163.84h307.199zM114.688 345.6l-90.1123 -143.359h139.264v-40.96c0 -22.5273 18.4316 -40.96 40.96 -40.96h102.4c22.5273 0 40.96 18.4326 40.96 40.96v40.96h139.264l-90.1123 143.359
h-282.623zM491.52 38.4004v143.359h-122.881v-30.7207c0 -28.6719 -22.5273 -51.1992 -51.1992 -51.1992h-122.88c-28.6709 0 -51.1992 22.5273 -51.1992 51.1992v30.7207h-122.88v-143.359h471.039z" />
    <glyph glyph-name="uniF11B" unicode="&#xf11b;" 
d="M166.106 170.393c3.69531 3.69434 9.64062 3.69434 13.334 0l67.1494 -67.1592v335.343c0 5.21191 4.2041 9.42383 9.42383 9.42383c5.21191 0 9.42383 -4.21289 9.42383 -9.42383v-335.343l67.1592 67.1592c3.68359 3.69336 9.63086 3.69336 13.3242 0
c3.6748 -3.66602 3.6748 -9.63086 0 -13.3252l-83.2451 -83.2256c-0.875977 -0.885742 -1.91211 -1.55469 -3.05273 -2.04492c-1.15918 -0.481445 -2.375 -0.725586 -3.60938 -0.725586c-1.24414 0 -2.45898 0.244141 -3.61816 0.725586
c-1.14062 0.490234 -2.18652 1.15918 -3.05273 2.04492l-83.2363 83.2256c-3.68359 3.69531 -3.68359 9.64062 0 13.3252zM447.606 338.069c5.21094 0 9.42383 -4.22266 9.4248 -9.42383v-383.222c0 -5.21191 -4.21289 -9.42383 -9.42383 -9.42383h-383.214
c-5.20117 0 -9.42383 4.21289 -9.42383 9.42383v383.223c0 5.20117 4.22266 9.42383 9.42383 9.42383h101.723c5.20117 0 9.42383 -4.22266 9.42383 -9.42383c0 -5.20215 -4.22266 -9.42383 -9.42383 -9.42383h-92.2998v-364.378h364.366v364.377h-89.5107
c-5.21191 0 -9.42383 4.22168 -9.42383 9.42383c0 5.20117 4.21289 9.42383 9.42383 9.42383h98.9346z" />
    <glyph glyph-name="uniF127" unicode="&#xf127;" 
d="M296.619 -50.667h-166.485c-45.6533 0 -48 0.704102 -48.9814 1.02441c-3.11523 0.938477 -6.44336 3.51953 -8.36328 5.43945c-2.21875 2.24023 -5.54688 7.61621 -6.03711 11.3496c-0.320312 2.2832 -0.362305 29.7812 -0.362305 45.9736v277.29
c0 45.6113 0.704102 47.958 1.00195 48.9609c0.917969 3.07129 3.45605 6.4209 5.37598 8.3623c2.21875 2.24023 7.65918 5.63184 11.4561 6.10156c2.64551 0.319336 38.7207 0.34082 45.9102 0.34082h53.1406c46.7627 0 48.5547 -1.08789 50.6455 -2.3252
c0.810547 -0.490234 2.64551 -1.62109 33.5996 -32.5332l58.0059 -58.0059c30.8691 -30.8262 32.1279 -32.917 32.5332 -33.5996c0.597656 -0.981445 1.15234 -1.89844 1.55762 -7.61621c0.490234 -1.08789 0.767578 -2.26074 0.767578 -3.51953
c0 -0.938477 -0.149414 -1.85645 -0.426758 -2.68848c0.277344 -7.25293 0.426758 -18.624 0.426758 -36.7783v-163.968c0 -45.7178 -0.682617 -47.9365 -1.00293 -49.0244c-0.938477 -3.09277 -3.49805 -6.4209 -5.41797 -8.34082
c-2.19727 -2.19824 -7.55273 -5.54688 -11.3066 -6.05957c-2.45312 -0.34082 -33.0029 -0.383789 -46.0371 -0.383789zM90.9648 -33.4297c6.69922 0 20.8223 -0.149414 39.1689 -0.149414h166.485c22.3359 0 41.6631 0.0859375 44.1387 0.256836
c-0.235352 -0.170898 0.746094 0.852539 1.2373 1.2793c0.511719 0.512695 1.1084 1.38672 1.2793 1.68555c-0.234375 0.682617 0.0429688 19.9258 0.0429688 43.499v163.968c0 12.5654 -0.12793 23.1895 -0.320312 30.9121h-77.6748
c-28.2236 0 -51.1992 22.9756 -51.1992 51.2002v77.5459c-7.74414 0.192383 -18.3467 0.320312 -30.8701 0.320312h-53.1191c-22.4219 0 -41.8135 -0.106445 -44.2031 -0.234375c0.426758 -0.0214844 -0.682617 -0.832031 -1.15234 -1.25879
c-0.490234 -0.491211 -1.10938 -1.38672 -1.25879 -1.68555c0.256836 -0.426758 -0.0634766 -17.792 -0.0634766 -43.499v-277.29c0 -22.3145 0.106445 -41.6426 0.255859 -44.1172c-0.0429688 0.746094 0.896484 -0.810547 1.30176 -1.30176
c0.490234 -0.46875 1.34375 -1.08789 1.64258 -1.2373c0.106445 0.0849609 1.59961 0.106445 4.30859 0.106445zM231.211 331.179v-71.9785c0 -18.8164 15.3174 -34.1338 34.1328 -34.1338h72c-5.33301 5.48242 -13.5889 13.8457 -23.8926 24.1279l-57.9844 58.0059
c-10.1553 10.1543 -18.667 18.5596 -24.2559 23.9785zM410.475 29.8242h-14.0586c-4.71484 0 -8.5332 3.83984 -8.5332 8.5332s3.81836 8.5332 8.5332 8.5332h14.0586c6.99707 0 13.6533 0.0849609 15.2744 0.234375c0.12793 0.107422 1.00293 0.896484 1.47266 1.30176
c0.511719 0.511719 1.12988 1.4082 1.2793 1.70703c-0.234375 0.661133 0.0429688 19.9033 0.0429688 43.4766v163.969c0 12.8633 -0.0634766 23.4023 -0.149414 30.9111h-77.8242c-28.2236 0 -51.1992 22.9766 -51.1992 51.2002v77.5898
c-7.74414 0.191406 -18.3467 0.319336 -30.8701 0.319336h-53.1406c-22.4219 0 -41.8135 -0.106445 -44.1816 -0.234375c0.12793 -0.0634766 -0.661133 -0.853516 -1.15234 -1.2373c-0.511719 -0.511719 -1.12988 -1.4082 -1.2793 -1.70703
c0.106445 -0.703125 -0.0644531 -8.29785 -0.0644531 -14.8906v-14.0586c0 -4.71387 -3.81836 -8.5332 -8.5332 -8.5332s-8.5332 3.83984 -8.5332 8.5332v14.0586c0 6.35742 0.12793 17.4297 1.00293 20.3525c0.916992 3.09277 3.49805 6.44238 5.39648 8.38379
c2.19727 2.21875 7.61621 5.63184 11.4561 6.08008c2.60254 0.320312 38.6777 0.34082 45.8887 0.34082h53.1406c46.7627 0 48.5547 -1.08789 50.6455 -2.3252c0.789062 -0.46875 2.64551 -1.59961 33.6006 -32.5332l58.0049 -58.0049
c33.0664 -33.0664 33.5791 -35.1152 34.1338 -37.4824c0.0849609 -0.363281 0.234375 -0.960938 0.383789 -4.7793c0.234375 -0.789062 0.362305 -1.62109 0.362305 -2.49609c0 -0.704102 -0.0849609 -1.38672 -0.234375 -2.04785
c0.12793 -6.52832 0.234375 -17.7705 0.234375 -37.4189v-163.968c0 -45.7168 -0.682617 -47.9355 -1.00293 -49.0234c-0.938477 -3.09375 -3.51953 -6.42188 -5.41797 -8.3418c-2.19727 -2.19727 -7.55273 -5.54688 -11.2852 -6.05859
c-1.32324 -0.170898 -9.17383 -0.383789 -17.4512 -0.383789zM316.438 411.69v-71.9785c0 -18.8154 15.3174 -34.1328 34.1328 -34.1328h71.7021c-5.41895 5.7168 -13.5898 14.1221 -23.5947 24.1279l-58.0059 58.0049c-10.1328 10.1338 -18.6455 18.5391 -24.2344 23.9785z
" />
    <glyph glyph-name="uniF12F" unicode="&#xf12f;" 
d="M289.349 274.673c0 32.0498 -12.9834 61.0654 -33.9316 82.0137l-0.0166016 0.0166016l-0.0166016 -0.0166016c-20.9824 20.9824 -49.999 33.9824 -82.0137 33.9824c-32.0488 0 -61.0654 -12.9834 -82.0479 -33.9482
c-20.9658 -20.9824 -33.9482 -49.998 -33.9482 -82.0469c0 -32.0322 13 -61.0303 33.9658 -82.0137c20.9824 -20.9824 49.999 -33.9824 82.0303 -33.9824c32.0156 0 61.0322 12.9834 82.0146 33.9824l0.400391 0.366211c20.7314 20.8984 33.5635 49.7812 33.5635 81.6465v0z
M266.666 367.986c23.8984 -23.8994 38.6816 -56.8984 38.6816 -93.3135c0 -36.1816 -14.5986 -68.9971 -38.2158 -92.8467l-0.450195 -0.483398c-23.8818 -23.8818 -56.8818 -38.665 -93.3281 -38.665c-36.4492 0 -69.4648 14.7832 -93.3311 38.665
c-23.8652 23.8828 -38.665 56.8828 -38.665 93.3301c0 36.4316 14.7832 69.4307 38.6484 93.2969l0.0507812 0.0332031c23.8652 23.8662 56.8809 38.666 93.2969 38.666c36.4482 0 69.4473 -14.7832 93.3281 -38.666zM322.664 186.609
c-2.23242 -3.7832 -7.15039 -5.0498 -10.9316 -2.80176c-3.7832 2.2334 -5.05078 7.15039 -2.7998 10.9336c17.999 30.499 24.832 65.7969 20.5146 99.9131c-4.23438 33.3311 -19.2002 65.6143 -44.8486 91.2793c-30.7158 30.6992 -70.9971 46.0654 -111.246 46.0654
c-40.2812 0 -80.5635 -15.3496 -111.229 -46.0488l-0.0332031 -0.0166016l0.0166016 -0.0166016c-30.7158 -30.7148 -46.0811 -70.9971 -46.0811 -111.246c0 -40.248 15.3652 -80.5303 46.0811 -111.245c30.7148 -30.7158 70.9805 -46.082 111.229 -46.082
c40.2822 0 80.5645 15.3662 111.279 46.082c3.11719 3.09961 8.18359 3.08496 11.2832 -0.0341797c3.09961 -3.11523 3.08301 -8.18066 -0.0332031 -11.2812c-33.8486 -33.832 -78.1973 -50.7666 -122.529 -50.7666c-44.3486 0 -88.7295 16.9512 -122.562 50.7666
c-33.832 33.833 -50.748 78.2139 -50.748 122.562s16.916 88.7305 50.7646 122.562l0.0166016 -0.0166016c33.8486 33.8486 78.2139 50.7812 122.545 50.7812c44.3496 0 88.7139 -16.916 122.562 -50.7646c28.1992 -28.1992 44.6816 -63.7812 49.3486 -100.597
c4.7666 -37.582 -2.7666 -76.4473 -22.5996 -110.029zM173.353 365.336c4.41602 0 8 -3.58301 8 -7.99902s-3.58398 -8 -8 -8c-5.19922 0 -10.1826 -0.516602 -14.8994 -1.44922c-4.91602 -1 -9.68262 -2.4834 -14.2002 -4.40039
c-4.33301 -1.83301 -8.56543 -4.14941 -12.5996 -6.86621l-0.382812 -0.25c-3.7666 -2.5498 -7.36621 -5.56641 -10.7168 -8.91602c-6.7832 -6.7998 -12.2832 -14.8496 -16.0322 -23.7002c-1.90039 -4.51562 -3.38281 -9.28223 -4.38379 -14.1992
c-0.933594 -4.7002 -1.44922 -9.68262 -1.44922 -14.8838c0 -4.41699 -3.58398 -7.99902 -8 -7.99902s-8 3.58203 -8 7.99902c0 6.0498 0.650391 12.083 1.81738 18c1.19922 5.98242 3.0166 11.7656 5.33301 17.2656c4.61621 10.8994 11.2656 20.6992 19.3984 28.833
c3.89941 3.89941 8.2832 7.53223 13.0166 10.7666l0.466797 0.333008c4.74902 3.19922 9.89941 5.98242 15.3652 8.29883c5.4834 2.31738 11.2666 4.13281 17.2666 5.35059c5.91797 1.16699 11.9512 1.81641 18 1.81641zM284.599 152.109
c-3.11621 3.11816 -3.11621 8.20117 0 11.3164c3.11816 3.11719 8.2002 3.11719 11.3154 0l45.6318 -45.6328c3.11816 -3.11523 3.11816 -8.2002 0 -11.3145c-3.11621 -3.11816 -8.19922 -3.11816 -11.3145 0zM331.548 116.445v0
c5.58398 5.58301 12.9336 8.36621 20.2666 8.36621c7.31641 0 14.6504 -2.7832 20.2334 -8.36621l0.0175781 -0.0175781l0.0166016 0.0175781l0.0175781 -0.0175781l43.8301 -43.8311l43.8311 -43.8486l43.8311 -43.8486h0.0166016
c5.58301 -5.56641 8.36523 -12.9336 8.36523 -20.25s-2.78223 -14.6494 -8.36621 -20.2324l-0.0175781 -0.0175781l0.0175781 -0.0175781l-0.0175781 -0.0166016h-0.0166016c-5.56641 -5.58398 -12.9336 -8.36816 -20.2676 -8.36816s-14.6836 2.78418 -20.249 8.36816
h-0.0175781l-43.8477 43.8486l-43.8486 43.8311l-43.832 43.832l-0.0166016 0.0166016c-5.56641 5.58301 -8.36621 12.9316 -8.36621 20.2666c0.0361328 7.35254 2.83691 14.7031 8.41992 20.2852v0v0zM342.881 105.13v0l-0.0175781 -0.0175781
c-2.4502 -2.4502 -3.68359 -5.69922 -3.68359 -8.93262c0 -3.23438 1.23438 -6.5 3.68359 -8.9502l0.0175781 -0.0166016l43.8311 -43.832l43.8311 -43.8486l43.8301 -43.8486h0.0175781c2.4502 -2.44922 5.69922 -3.68066 8.93359 -3.68066s6.50098 1.2334 8.9502 3.68066
v0l0.0166016 0.0175781l0.0175781 -0.0175781c2.43359 2.45215 3.64941 5.68457 3.64941 8.9668c0 3.2334 -1.2334 6.4834 -3.66699 8.93555l-0.0166016 0.0166016l-43.832 43.8486l-43.8486 43.8477l-43.8301 43.832v0.0166016l0.0166016 0.0175781
c-2.4502 2.43262 -5.68359 3.65039 -8.9668 3.65039c-3.25 -0.00390625 -6.49902 -1.23633 -8.93262 -3.68555z" />
    <glyph glyph-name="uniF12C" unicode="&#xf12c;" 
d="M472.593 17.9531h-433.183c-21.7305 0 -39.4102 17.6797 -39.4102 39.4102v269.273c0 21.7305 17.6797 39.4102 39.4102 39.4102h433.183c21.7275 0 39.4072 -17.6797 39.4072 -39.4102v-269.273c0 -21.7305 -17.6797 -39.4102 -39.4072 -39.4102zM21.4102 41.2871
c4.42383 -4.94922 10.8564 -8.07227 18 -8.07227h433.183c7.09473 0 13.4814 3.07715 17.9023 7.96191l-193.175 141.761l-36.8428 -26.8936c-2.6748 -1.9541 -6.30469 -1.95703 -8.98535 -0.00878906l-37.041 26.9082zM310.252 192.38l186.419 -136.796
c0.0458984 0.585938 0.0644531 1.18164 0.0644531 1.7793v269.273c0 0.607422 -0.0244141 1.21191 -0.0673828 1.80957zM15.2861 327.632c-0.015625 -0.330078 -0.0214844 -0.663086 -0.0214844 -0.995117v-269.273c0 -0.542969 0.0185547 -1.08008 0.0546875 -1.6084
l186.166 136.61zM21.0527 342.311l234.909 -170.657l234.518 171.179c-4.41992 4.88184 -10.8037 7.9502 -17.8896 7.9502h-433.18c-7.33887 0 -13.9209 -3.29102 -18.3574 -8.47168z" />
    <glyph glyph-name="uniF153" unicode="&#xf153;" 
d="M301.588 -24.2979c5.60547 0 10.1182 -4.56543 10.1182 -10.1182c0 -5.5791 -4.54785 -10.1182 -10.1182 -10.1182h-291.47c-5.58789 0 -10.1182 4.53906 -10.1182 10.1182c0 5.55273 4.53027 10.1182 10.1182 10.1182h291.47zM301.588 39.0967
c5.60547 0 10.1182 -4.53125 10.1182 -10.1182c0 -5.55273 -4.54785 -10.1182 -10.1182 -10.1182h-256.385c-5.5791 0 -10.1182 4.56543 -10.1182 10.1182c0 5.5957 4.53906 10.1182 10.1182 10.1182h256.385zM301.588 102.543c5.60547 0 10.1182 -4.53906 10.1182 -10.1182
c0 -5.57031 -4.54785 -10.1182 -10.1182 -10.1182h-221.301c-5.58789 0 -10.1182 4.54785 -10.1182 10.1182c0 5.5791 4.53027 10.1182 10.1182 10.1182h221.301zM301.588 165.929c5.60547 0 10.1182 -4.53906 10.1182 -10.1094
c0 -5.57812 -4.54785 -10.1182 -10.1182 -10.1182h-186.225c-5.59668 0 -10.1182 4.54004 -10.1182 10.1182c0 5.57031 4.52148 10.1094 10.1182 10.1094h186.225zM301.588 229.367c5.60547 0 10.1182 -4.53027 10.1182 -10.1182s-4.54785 -10.1094 -10.1182 -10.1094
h-151.141c-5.57812 0 -10.1094 4.5127 -10.1094 10.1094c0 5.58789 4.53125 10.1182 10.1094 10.1182h151.141zM301.588 292.762c5.60547 0 10.1182 -4.53906 10.1182 -10.1094c0 -5.58789 -4.54785 -10.1182 -10.1182 -10.1182h-116.056
c-5.58789 0 -10.1182 4.53027 -10.1182 10.1182c0 5.5791 4.53027 10.1094 10.1182 10.1094h116.056zM509.046 343.344c3.93262 -3.93262 3.93262 -10.3779 0.0263672 -14.3105c-1.97559 -1.9668 -4.58301 -2.9541 -7.15625 -2.9541
c-2.60742 0 -5.18848 0.953125 -7.17188 2.9541l-60.8047 60.7871v-424.254c0 -5.59668 -4.51367 -10.1182 -10.1182 -10.1182c-5.5791 0 -10.1182 4.52148 -10.1182 10.1182v424.254l-60.7871 -60.7871c-3.93359 -3.92383 -10.3525 -3.92383 -14.3027 0
c-3.93262 3.92383 -3.93262 10.3779 0 14.3105l78.0518 78.0264c0.0263672 0 0.0263672 0 0.0263672 0.0351562l7.12988 7.14648l7.17285 -7.16406v0z" />
    <glyph glyph-name="uniF152" unicode="&#xf152;" 
d="M120.759 191.964l142.128 -195.354c12.3682 -17.0176 8.59375 -40.9297 -8.4209 -53.3008c-6.58789 -4.7832 -14.3457 -7.30762 -22.4385 -7.30762c-12.1904 0 -23.7383 5.88477 -30.876 15.7383l-158.454 217.787c-9.79297 13.416 -9.79297 31.4609 0.00390625 44.8906
l158.457 217.848c7.08789 9.84375 18.6201 15.7354 30.8262 15.7354c8.10059 0 15.8721 -2.52441 22.4746 -7.30371c17.0244 -12.3789 20.8037 -36.29 8.43555 -53.3154zM246.002 -45.0371c10.585 7.69629 12.9336 22.5781 5.23242 33.1709l-145.209 199.592
c-1.8418 2.52734 -1.8418 5.9502 0 8.47461l145.218 199.652c7.69629 10.5986 5.34375 25.4844 -5.24121 33.1846c-4.11621 2.97852 -8.96777 4.55664 -14.0176 4.55664c-7.58887 0 -14.749 -3.65625 -19.1572 -9.77441l-158.481 -217.885
c-6.09375 -8.35938 -6.09375 -19.5791 -0.0078125 -27.9268l158.468 -217.805c4.44824 -6.1377 11.6338 -9.7959 19.2217 -9.7959c5.03516 0 9.86523 1.57324 13.9746 4.55566zM469.318 -3.39258c5.99707 -8.2041 8.4375 -18.2666 6.85938 -28.3174
c-1.57617 -10.0928 -7.00781 -18.9629 -15.2812 -24.9814c-6.51074 -4.77539 -14.2578 -7.30762 -22.3838 -7.30762c-12.2314 0 -23.7959 5.88477 -30.9336 15.7383l-158.458 217.787c-9.7207 13.4268 -9.7207 31.4492 -0.0107422 44.8691l158.479 217.869
c7.13867 9.85059 18.6787 15.7354 30.8662 15.7354c8.10352 0 15.8613 -2.52832 22.4375 -7.31055c8.27637 -6.01855 13.7051 -14.8887 15.2852 -24.9775c1.57812 -10.0557 -0.863281 -20.123 -6.86816 -28.3447l-142.126 -195.403zM461.945 -29.4814
c0.979492 6.24512 -0.537109 12.498 -4.26465 17.5977l-145.229 199.606c-1.84082 2.52734 -1.84082 5.94922 0 8.47363l145.218 199.651c3.74609 5.12598 5.25879 11.3818 4.2793 17.6309c-0.987305 6.28125 -4.36914 11.8057 -9.52637 15.5586
c-4.09766 2.97852 -8.92871 4.55664 -13.9678 4.55664c-7.58398 0 -14.7666 -3.66309 -19.2109 -9.79297l-158.472 -217.866c-6.04297 -8.35156 -6.04297 -19.5889 0.0107422 -27.9482l158.454 -217.783c4.5127 -6.23145 11.54 -9.7959 19.2793 -9.7959
c5.03906 0 9.84082 1.56641 13.8848 4.53418c5.17871 3.77051 8.56445 9.2959 9.54395 15.5771z" />
    <glyph glyph-name="uniF155" unicode="&#xf155;" 
d="M507.367 363.358c6.17676 -6.17676 6.17676 -16.2256 0 -22.4043l-320.93 -320.289c-6.20898 -6.20996 -16.2588 -6.20996 -22.4688 0c-0.0634766 0.0947266 -0.0947266 0.223633 -0.191406 0.319336c-0.0957031 0.0966797 -0.255859 0.128906 -0.352539 0.224609
l-158.72 158.433c-6.27344 6.24121 -6.27344 16.3877 0 22.6289c6.24121 6.24121 16.3867 6.24121 22.6602 0l148.062 -147.774l309.472 308.862c6.20801 6.17773 16.2588 6.17773 22.4678 0z" />
    <glyph glyph-name="uniF117" unicode="&#xf117;" 
d="M511.988 432.043l-240.041 -240.038l240.041 -240.041l-15.9316 -15.9639l-240.057 240.073l-240.041 -240.073l-15.9473 15.9639l240.041 240.041l-240.041 240.038l15.9473 15.957l240.041 -240.041l240.057 240.041z" />
    <glyph glyph-name="uniF132" unicode="&#xf132;" 
d="M256 448c138.25 0 250.713 -111.804 250.712 -249.208c0 -137.425 -112.463 -249.229 -250.713 -249.229c-33.7178 0 -66.4551 6.57129 -97.3633 19.5605l-56.3828 -31.7656c-1.60938 -0.897461 -3.39551 -1.3584 -5.18262 -1.3584
c-1.8291 0 -3.65723 0.470703 -5.28711 1.4209c-3.23926 1.87109 -5.22461 5.30859 -5.22461 9.02832v68.7119c-51.7109 47.1777 -81.2715 113.821 -81.2715 183.62c0 137.415 112.473 249.219 250.713 249.219zM256 -29.5498c126.651 0 229.689 102.431 229.689 228.331
s-103.038 228.321 -229.689 228.321s-229.689 -102.421 -229.71 -228.332c0 -65.3887 28.3379 -127.77 77.7295 -171.144c2.25781 -1.97363 3.55273 -4.82812 3.55273 -7.82617v-55.4316l45.2549 25.4961c2.90527 1.63965 6.43652 1.79688 9.47656 0.448242
c29.6338 -13.1758 61.1582 -19.8633 93.6963 -19.8633zM165.104 229.261c20.7725 0 37.668 -16.792 37.668 -37.4385c0 -20.6475 -16.8955 -37.4385 -37.668 -37.4385s-37.6689 16.791 -37.6689 37.4385c0 20.6465 16.8955 37.4385 37.6689 37.4385zM165.104 175.271
c9.18457 0 16.6455 7.41895 16.6455 16.54s-7.47168 16.54 -16.6455 16.54s-16.6455 -7.41895 -16.6455 -16.54s7.47168 -16.54 16.6455 -16.54zM259.699 229.261c20.7725 0 37.6689 -16.792 37.6689 -37.4385c0 -20.6475 -16.8965 -37.4385 -37.6689 -37.4385
s-37.668 16.791 -37.668 37.4385c0 20.6465 16.8945 37.4385 37.668 37.4385zM259.699 175.271c9.18457 0 16.6445 7.41895 16.6445 16.54s-7.4707 16.54 -16.6445 16.54s-16.6455 -7.41895 -16.6455 -16.54s7.47168 -16.54 16.6455 -16.54zM354.293 229.261
c20.7725 0 37.6699 -16.792 37.6699 -37.4385c0 -20.6475 -16.8965 -37.4385 -37.6699 -37.4385c-20.7617 0 -37.6572 16.791 -37.6572 37.4385c0 20.6465 16.8955 37.4385 37.6572 37.4385zM354.293 175.271c9.1748 0 16.6455 7.41895 16.6455 16.54
s-7.4707 16.54 -16.6455 16.54s-16.6348 -7.41895 -16.6348 -16.54s7.46094 -16.54 16.6348 -16.54z" />
    <glyph glyph-name="uniF116" unicode="&#xf116;" 
d="M63.0977 -20.958c-5.87598 0 -11.6104 1.7627 -16.5615 5.15918c-6.47656 4.44141 -10.8369 11.1387 -12.2764 18.8555l-33.7578 180.972c-2.97363 15.9336 7.57422 31.3174 23.5107 34.292l106.378 19.8398v138.329c0 15.6982 12.7715 28.4688 28.4697 28.4688h324.671
c15.6973 0 28.4688 -12.7705 28.4688 -28.4688v-185.947c0 -15.7002 -12.7715 -28.4717 -28.4688 -28.4717h-90.7412l16.6074 -89.0322c1.43945 -7.71973 -0.210938 -15.54 -4.65234 -22.0156c-4.44141 -6.47852 -11.1387 -10.8369 -18.8584 -12.2793l-317.335 -59.1963
c-1.81934 -0.336914 -3.64551 -0.504883 -5.4541 -0.504883zM130.391 225.384l-104.074 -19.4131c-9.12891 -1.70312 -15.1709 -10.5156 -13.4668 -19.6387l33.7568 -180.972c0.826172 -4.4209 3.32324 -8.25488 7.0332 -10.7988
c3.71094 -2.54492 8.1875 -3.49707 12.6104 -2.66602l317.336 59.1943c4.42188 0.824219 8.25781 3.32129 10.8018 7.03125c2.54492 3.70996 3.48926 8.18945 2.66602 12.6133l-17.0371 91.333h-221.156c-15.7012 0 -28.4697 12.7715 -28.4697 28.4717v34.8447z
M159.789 174.628h323.742c8.77148 0 15.9082 7.13965 15.9082 15.9111v98.4727h-356.488v-97.543c0 -9.28418 7.55371 -16.8408 16.8379 -16.8408zM142.951 301.574h356.488v46.3281h-356.488v-46.3281zM142.951 360.462h356.488v16.0273
c0 8.77246 -7.13672 15.9092 -15.9082 15.9092h-324.671c-8.77246 0 -15.9092 -7.13672 -15.9092 -15.9092v-16.0273zM60.9346 52.1221c-2.96387 0 -5.60156 2.1084 -6.16699 5.12988c-0.634766 3.40625 1.61328 6.6875 5.02148 7.3252l58.7295 10.9551
c3.40625 0.618164 6.68945 -1.6123 7.3252 -5.02441c0.635742 -3.40625 -1.6123 -6.68652 -5.02148 -7.3252l-58.7295 -10.9551c-0.386719 -0.0703125 -0.776367 -0.105469 -1.1582 -0.105469zM141.921 67.2295c-2.96387 0 -5.60156 2.1084 -6.16699 5.12988
c-0.635742 3.40625 1.61328 6.6875 5.02148 7.3252l58.7295 10.9551c3.40137 0.618164 6.68945 -1.6123 7.3252 -5.02441c0.635742 -3.40625 -1.6123 -6.68652 -5.02148 -7.3252l-58.7295 -10.9551c-0.389648 -0.0722656 -0.776367 -0.105469 -1.1582 -0.105469z
M222.905 82.335c-2.96484 0 -5.60254 2.10742 -6.16699 5.12988c-0.635742 3.40625 1.6123 6.68652 5.02148 7.3252l58.7285 10.9551c3.39941 0.617188 6.69043 -1.61328 7.3252 -5.02441c0.635742 -3.40625 -1.6123 -6.6875 -5.02148 -7.3252l-58.7295 -10.9551
c-0.386719 -0.0703125 -0.775391 -0.105469 -1.15723 -0.105469zM303.889 97.4424c-2.96387 0 -5.60156 2.10742 -6.16699 5.12988c-0.635742 3.40625 1.6123 6.68652 5.02148 7.3252l58.7295 10.9551c3.40625 0.618164 6.68945 -1.61328 7.3252 -5.02441
c0.635742 -3.40625 -1.61328 -6.6875 -5.02148 -7.3252l-58.7295 -10.9551c-0.386719 -0.0703125 -0.773438 -0.105469 -1.1582 -0.105469zM61.709 99.7236c-8.44824 0 -15.9873 6.01855 -17.5898 14.6172l-4.61719 24.7588
c-1.80859 9.69922 4.60938 19.0645 14.3115 20.8779l38.2656 7.13672c9.69141 1.81641 19.0645 -4.60938 20.8779 -14.3115l4.61719 -24.7588v0c1.80859 -9.69824 -4.60938 -19.0635 -14.3135 -20.877l-38.2666 -7.13965
c-1.10254 -0.203125 -2.2002 -0.303711 -3.28516 -0.303711zM95.3652 154.858c-0.324219 0 -0.65332 -0.0302734 -0.982422 -0.09375l-38.2656 -7.13672c-2.8916 -0.540039 -4.80859 -3.33105 -4.26855 -6.22754l4.61719 -24.7588
c0.540039 -2.88867 3.33887 -4.80469 6.22754 -4.26465l38.2637 7.13867c2.89355 0.540039 4.81055 3.33105 4.27051 6.22754l-4.61719 24.7568c-0.479492 2.56445 -2.72852 4.3584 -5.24512 4.3584z" />
    <glyph glyph-name="uniF133" unicode="&#xf133;" 
d="M380.088 448c16.3018 0 29.5713 -13.251 29.5703 -29.5527v-452.886c0 -16.3115 -13.2686 -29.5615 -29.5703 -29.5615h-248.176c-16.3018 0 -29.5713 13.2588 -29.5713 29.5615v452.876c0 16.3115 13.2695 29.5625 29.5713 29.5625h248.176zM396.59 -34.4385
l-0.000976562 452.886c0 9.09668 -7.40527 16.4932 -16.501 16.4932h-248.176c-9.09668 0 -16.502 -7.39746 -16.502 -16.4932v-452.886c0 -9.09766 7.40625 -16.4932 16.502 -16.4932h248.177c9.0957 0 16.501 7.39648 16.501 16.4932zM374.339 366.703
c1.80273 0 3.26758 -1.46289 3.26758 -3.2666v-326.226c0 -1.80273 -1.46484 -3.2666 -3.26758 -3.2666h-236.677c-1.80371 0 -3.26758 1.46387 -3.26758 3.2666v326.225c0 1.80371 1.46484 3.26758 3.26758 3.26758h236.677zM371.071 40.4795v319.69h-230.142v-319.69
h230.142zM286.708 4.98535c6.82227 0 12.3711 -5.55762 12.3799 -12.3809c0 -6.82227 -5.55859 -12.3799 -12.3799 -12.3799h-61.415c-6.82129 0 -12.3799 5.55762 -12.3799 12.3799c0 6.82324 5.55859 12.3809 12.3799 12.3809h61.415zM286.708 -13.2412
c3.22363 0 5.83594 2.62207 5.8457 5.8457c0 3.22266 -2.62207 5.8457 -5.8457 5.8457h-61.415c-3.22461 0 -5.84668 -2.62305 -5.84668 -5.8457c0 -3.22363 2.62305 -5.8457 5.84668 -5.8457h61.415zM230.573 401.431c-4.45312 0 -8.06836 3.61621 -8.06836 8.06836
s3.61523 8.06836 8.06836 8.06836h50.8467c4.45117 0 8.06641 -3.61621 8.06641 -8.06836s-3.61426 -8.06836 -8.06641 -8.06836h-50.8467zM230.573 411.032c-0.845703 0 -1.5332 -0.6875 -1.5332 -1.5332c0 -0.844727 0.6875 -1.5332 1.5332 -1.5332h50.8467
c0.845703 0 1.5332 0.688477 1.5332 1.5332c0 0.845703 -0.6875 1.5332 -1.5332 1.5332h-50.8467z" />
    <glyph glyph-name="uniF147" unicode="&#xf147;" 
d="M143.944 -64c-15.7588 0 -25.5107 3.23926 -26.4248 3.55273c-7.62793 2.64355 -11.8164 10.8398 -9.4873 18.5742l23.5859 78.3115c-69.4326 40.4346 -112.06 111.844 -112.06 189.159c0 122.63 106.066 222.402 236.44 222.402s236.441 -99.7725 236.441 -222.402
c0 -119.938 -99.0303 -216.958 -226.013 -222.127c-1.93359 -0.384766 -3.98535 -0.384766 -6.06738 0.0947266l-0.737305 0.165039c-7.4043 1.66309 -12.416 8.58008 -11.6875 16.1338c0.725586 7.56152 6.96582 13.3887 14.5537 13.6084
c112.057 3.23145 199.832 87.623 199.832 192.124c0 106.023 -92.5566 192.281 -206.322 192.281c-113.765 0 -206.321 -86.2549 -206.321 -192.28c0 -70.0127 40.9209 -134.559 106.793 -168.443c6.18066 -3.17676 9.38184 -10.1738 7.74512 -16.9355
c-0.136719 -0.56543 -0.305664 -1.11328 -0.501953 -1.65527l-21.8486 -72.5469c15.4795 -0.298828 42.1836 3.45117 73.7861 27.0771c6.65527 4.97266 16.1025 3.61523 21.0762 -3.04395c4.98047 -6.66797 3.62012 -16.1025 -3.04395 -21.084
c-36.1816 -27.0518 -68.4395 -32.9658 -89.7393 -32.9658zM255.999 286.74h-133.546c-6.65527 0 -12.0479 5.39648 -12.0479 12.0479s5.39258 12.0469 12.0479 12.0469h133.546c6.65527 0 12.0479 -5.39648 12.0479 -12.0469
c0.000976562 -6.65137 -5.3916 -12.0479 -12.0479 -12.0479zM255.999 212.257h-133.546c-6.65527 0 -12.0479 5.39648 -12.0479 12.0479c0 6.65234 5.39258 12.0479 12.0479 12.0479h133.546c6.65527 0 12.0479 -5.39648 12.0479 -12.0479
c0.000976562 -6.65137 -5.3916 -12.0479 -12.0479 -12.0479zM255.999 137.772h-133.546c-6.65527 0 -12.0479 5.39648 -12.0479 12.0479c0 6.65039 5.39258 12.0469 12.0479 12.0469h133.546c6.65527 0 12.0479 -5.39648 12.0479 -12.0469
c0 -6.65137 -5.3916 -12.0479 -12.0479 -12.0479zM328.264 262.647c0 -1.69141 -0.327148 -3.2666 -0.975586 -4.72168c-0.655273 -1.46094 -1.52148 -2.74512 -2.59375 -3.85449c-1.0791 -1.11426 -2.34668 -1.98145 -3.80078 -2.59375
c-1.46191 -0.618164 -3.03711 -0.921875 -4.72168 -0.921875c-3.45605 0 -6.31641 1.15137 -8.58301 3.45508c-2.26172 2.30371 -3.39551 5.18262 -3.39551 8.6377c0 7.67383 1.47949 14.8936 4.4375 21.6523c2.95117 6.75293 6.96387 12.6689 12.0312 17.7363
c5.06738 5.06641 10.9775 9.05566 17.7354 11.9775c6.75293 2.91602 13.9355 4.37598 21.5371 4.37598c7.60059 0 14.7783 -1.49707 21.5371 -4.49121c6.75195 -2.99512 12.668 -7.02539 17.7354 -12.0928c5.06738 -5.06641 9.08008 -10.9824 12.0312 -17.7354
c2.95898 -6.75879 4.4375 -13.8994 4.4375 -21.4209c0 -15.2031 -5.49219 -28.4111 -16.4697 -39.6182l-18.0811 -16.7002c-6.14648 -6.14551 -9.21387 -12.8623 -9.21387 -20.1543c0 -3.45605 -1.13379 -6.31641 -3.39453 -8.57715
c-2.2666 -2.2666 -5.12793 -3.40137 -8.58301 -3.40137c-3.45605 0 -6.33496 1.13477 -8.63867 3.40137c-2.30273 2.26074 -3.45508 5.12109 -3.45508 8.57715c0 13.8203 5.48535 26.2158 16.4697 37.2002l18.0811 16.8145c6.14062 6.37012 9.21387 13.8564 9.21387 22.458
c0 4.29688 -0.849609 8.36523 -2.53418 12.207c-1.69141 3.83691 -3.96973 7.19531 -6.85547 10.0801c-2.87305 2.87402 -6.2373 5.1582 -10.0752 6.84961c-3.84277 1.68555 -7.90918 2.5332 -12.207 2.5332c-4.37695 0 -8.4873 -0.824219 -12.3232 -2.47266
c-3.84375 -1.6543 -7.19531 -3.9043 -10.0811 -6.74023c-2.87305 -2.84277 -5.13965 -6.18262 -6.78809 -10.0195c-1.65234 -3.84473 -2.47656 -7.99121 -2.47656 -12.4404zM376.289 148.588c0 -4.53516 -1.59375 -8.38965 -4.77734 -11.5781
c-3.18848 -3.18164 -7.0498 -4.77637 -11.5771 -4.77637c-4.53418 0 -8.38867 1.59375 -11.5771 4.77637c-3.18164 3.18848 -4.77734 7.04297 -4.77734 11.5781c0 4.52734 1.59375 8.38867 4.77734 11.5771c3.18848 3.18164 7.04297 4.77637 11.5771 4.77637
c4.52734 0 8.38867 -1.59375 11.5771 -4.77637c3.18359 -3.1875 4.77734 -7.04883 4.77734 -11.5771z" />
    <glyph glyph-name="uniF114" unicode="&#xf114;" 
d="M58.1113 448c28.2637 0 51.2617 -22.9961 51.2617 -51.2695c0 -28.2744 -22.998 -51.2627 -51.2617 -51.2627s-51.251 22.9912 -51.251 51.2627s22.9951 51.2695 51.251 51.2695zM58.1113 360.848c19.8027 0 35.9014 16.0879 35.9014 35.8828
s-16.0986 35.9111 -35.9014 35.9111c-19.792 0 -35.8906 -16.1191 -35.8906 -35.9111c0 -19.7842 16.0986 -35.8828 35.8906 -35.8828zM58.1113 245.295c28.2637 0 51.2617 -22.9951 51.2617 -51.2617c0 -28.2441 -22.998 -51.2324 -51.2617 -51.2324
s-51.251 22.9883 -51.251 51.2324c0 28.2744 22.9951 51.2617 51.251 51.2617zM58.1113 158.17c19.8027 0 35.9014 16.082 35.9014 35.8633c0 19.7842 -16.0986 35.8828 -35.9014 35.8828c-19.792 0 -35.8906 -16.0908 -35.8906 -35.8828
c0 -19.7734 16.0986 -35.8633 35.8906 -35.8633zM58.1113 38.5234c28.2637 0 51.2617 -22.9873 51.2617 -51.2617s-22.998 -51.2617 -51.2617 -51.2617s-51.251 22.9873 -51.251 51.2617s22.9951 51.2617 51.251 51.2617zM58.1113 -48.6309
c19.8027 0 35.9014 16.1191 35.9014 35.8906c0 19.7832 -16.0986 35.9004 -35.9014 35.9004c-19.792 0 -35.8906 -16.1084 -35.8906 -35.9004c0 -19.7744 16.0986 -35.8906 35.8906 -35.8906zM196.086 388.144v17.1729h309.057v-17.1729h-309.057zM196.086 177.34v17.1738
h309.057v-17.1738h-309.057zM196.086 -18.3037v17.165h309.057v-17.165h-309.057z" />
    <glyph glyph-name="uniF151" unicode="&#xf151;" 
d="M256 448c141.391 0 256 -114.609 256 -256s-114.609 -256 -256 -256s-256 114.609 -256 256s114.609 256 256 256zM256 -24c119.297 0 216 96.7031 216 216s-96.7031 216 -216 216s-216 -96.7031 -216 -216s96.7031 -216 216 -216zM176 238.25
c2.53125 24.4062 10.9688 44.1406 25.375 59.2188c14.3438 15.0312 34 22.5312 58.8594 22.5312c12.2324 0 23.1719 -2.14062 32.5938 -6.48438c9.42188 -4.29688 17.375 -10.1406 23.7188 -17.4834c6.32812 -7.28125 11.2188 -15.5469 14.5156 -24.7969
c3.28125 -9.2666 4.93848 -18.8447 4.93848 -28.7031c0 -8.625 -0.984375 -16.3916 -3.06152 -23.2666c-2.0957 -6.875 -4.95312 -12.9834 -8.68848 -18.2969c-3.75 -5.4375 -8.03125 -10.375 -13.1094 -15c-4.92188 -4.6875 -10.3262 -9.07812 -16.1875 -13.2334
c-10.8447 -8.40527 -22.125 -16.4521 -33.6719 -24.2021c-11.5947 -7.75 -22.7197 -16.5312 -33.375 -26.3281c-3.875 -3.67188 -7.0625 -7.43848 -9.59473 -11.4531c-2.5 -4.0166 -4.59375 -9.03125 -6.26562 -15.0166h117.375v-31.7354h-150.891v24.2031
c0 10.0469 3.1875 20 9.625 29.5781c6.4375 9.7334 14.4375 19.1875 24.125 28.2188c9.625 9.03125 20.1875 17.8281 31.7812 26.3594c11.6084 8.51562 22.5303 16.7656 32.8906 24.7803c7.84375 5.98438 14.0312 12.3594 18.6719 19.2344
c4.51562 6.85938 6.85938 15.625 6.85938 26.3438c0 15.1719 -3.8125 27.0312 -11.7344 35.5312c-7.78125 8.48438 -17.9375 12.7344 -30.5156 12.7344c-15.3594 0 -27.5312 -4.70312 -36.4531 -14.1094c-9 -9.375 -13.4385 -22.25 -13.4385 -38.625l-34.3428 0.000976562v0
z" />
    <glyph glyph-name="uniF12D" unicode="&#xf12d;" 
d="M511.999 191.998c0.000976562 -61.6533 -21.6543 -119.974 -61.3525 -166.294c3.68945 -7.90527 2.29395 -17.5957 -4.23047 -24.1211c-4.16992 -4.16699 -9.63477 -6.25293 -15.0986 -6.25293c-3.08691 0 -6.16895 0.688477 -9.02246 2.02051
c-46.3174 -39.6973 -104.637 -61.3516 -166.29 -61.3516c-61.6553 0 -119.977 21.6553 -166.299 61.3564c-2.85352 -1.33008 -5.93359 -2.02148 -9.02051 -2.02148c-5.46484 0 -10.9287 2.08398 -15.0986 6.25293c-6.52441 6.52637 -7.91895 16.2148 -4.23242 24.1191
c-39.6992 46.3203 -61.3545 104.642 -61.3545 166.295c0 61.6543 21.6553 119.975 61.3525 166.293c-3.68848 7.90527 -2.29395 17.5957 4.23145 24.1211c6.52637 6.52246 16.2158 7.91895 24.1201 4.23145c46.3184 39.6992 104.64 61.3535 166.292 61.3535
c61.6553 0 119.974 -21.6553 166.293 -61.3555c7.90625 3.69141 17.5996 2.29688 24.124 -4.22949c6.52637 -6.52637 7.91895 -16.2178 4.22949 -24.124c39.7002 -46.3164 61.3564 -104.64 61.3564 -166.293zM442.26 35.9346
c36.7227 43.6748 56.7373 98.3271 56.7363 156.068c0 57.7363 -20.0146 112.389 -56.7393 156.062l-65.0273 -65.0293c19.6934 -26.1123 30.3555 -57.7529 30.3555 -91.0371c0 -33.2812 -10.6611 -64.9209 -30.3535 -91.0322zM167.763 103.764
c6.08887 -6.08887 7.70996 -14.9375 4.90527 -22.5137c23.8936 -18.0576 52.8594 -27.835 83.3311 -27.835c30.4736 0 59.4385 9.7793 83.333 27.835c-2.80371 7.57812 -1.18359 16.4248 4.90527 22.5156c6.08887 6.08887 14.9355 7.70996 22.5146 4.9043
c18.0547 23.8906 27.8291 52.8564 27.8291 83.3271c0 30.4746 -9.77637 59.4404 -27.832 83.333c-2.38965 -0.881836 -4.90039 -1.3457 -7.41504 -1.3457c-5.46484 0 -10.9287 2.08398 -15.0986 6.25293c-6.08887 6.08887 -7.70801 14.9326 -4.90625 22.5117
c-23.8926 18.0566 -52.8584 27.832 -83.3311 27.832c-30.4717 0 -59.4365 -9.77637 -83.3301 -27.832c2.80273 -7.5791 1.18164 -16.4229 -4.90625 -22.5107c-4.16992 -4.16797 -9.63477 -6.25391 -15.0986 -6.25391c-2.50977 0 -5.01367 0.460938 -7.39844 1.34082
c-37.0303 -49.1436 -37.0303 -117.505 -0.00195312 -166.65c7.57715 2.7959 16.4141 1.17285 22.5 -4.91113zM412.062 378.26c-43.6777 36.7217 -98.3291 56.7373 -156.067 56.7373c-57.7354 0 -112.388 -20.0137 -156.063 -56.7354l65.0332 -65.0312
c26.1113 19.6924 57.752 30.3545 91.0332 30.3545c33.2822 0 64.9209 -10.6621 91.0342 -30.3545zM69.7461 348.057c-75.4834 -89.958 -75.4834 -222.151 0.000976562 -312.113l65.0361 65.0352c-40.3828 53.708 -40.3818 128.338 0 182.043zM99.9355 5.74219
c43.6758 -36.7227 98.3301 -56.7393 156.069 -56.7373c57.7354 0 112.386 20.0137 156.062 56.7344l-65.0283 65.0312c-26.1133 -19.6943 -57.7549 -30.3574 -91.0371 -30.3574c-33.2832 0 -64.9229 10.6631 -91.0361 30.3574z" />
    <glyph glyph-name="uniF10E" unicode="&#xf10e;" 
d="M1.05859 273.311c0 4.40039 3.58301 7.96777 7.9668 7.96777c4.38281 0 7.9668 -3.58398 7.9668 -7.96777v-288.176c0 -9.11621 3.75 -17.417 9.75098 -23.4346c6.0166 -6.01758 14.3164 -9.76758 23.4336 -9.76758h411.664c9.11621 0 17.416 3.75 23.4336 9.76758
c6.01855 6.01758 9.75 14.3184 9.75 23.4346v288.176c0 4.40039 3.58398 7.96777 7.96777 7.96777s7.9668 -3.58398 7.9668 -7.96777v-288.176c0 -13.5176 -5.53418 -25.8164 -14.417 -34.7002c-8.90137 -8.90234 -21.1846 -14.4336 -34.7002 -14.4336h-411.665
c-13.5166 0 -25.8174 5.5332 -34.7012 14.4336c-8.88379 8.88281 -14.417 21.1826 -14.417 34.7012v288.175zM155.412 244.76h-76.6855v-86.9688h76.6855v86.9688v0zM70.7598 260.693h92.4199h0.199219c4.40039 0 7.96777 -3.58301 7.96777 -7.9668v-102.703v-0.200195
c0 -4.39941 -3.58398 -7.9668 -7.96777 -7.9668h-92.418h-0.200195c-4.39941 0 -7.9668 3.58398 -7.9668 7.9668v102.704v0.200195c-0.0166016 4.38379 3.56738 7.96582 7.96582 7.96582zM433.289 244.76h-76.6855v-86.9688h76.6855v86.9688v0zM348.62 260.693h92.4199
h0.216797c4.39941 0 7.9668 -3.58301 7.9668 -7.9668v-102.703v-0.200195c0 -4.39941 -3.58398 -7.9668 -7.9668 -7.9668h-92.4209h-0.200195c-4.39941 0 -7.9834 3.58398 -7.9834 7.9668v102.704v0.200195c0 4.38379 3.58301 7.96582 7.96777 7.96582zM294.334 244.76
h-76.6865v-86.9688h76.6865v86.9688v0zM209.682 260.693h92.4199h0.216797c4.40039 0 7.9668 -3.58301 7.9668 -7.9668v-102.703v-0.200195c0 -4.39941 -3.58398 -7.9668 -7.9668 -7.9668h-92.4209h-0.216797c-4.40039 0 -7.9668 3.58398 -7.9668 7.9668v102.704v0.200195
c0.000976562 4.38379 3.58398 7.96582 7.96777 7.96582zM155.412 100.655h-76.6855v-86.9697h76.6855v86.9697v0zM70.7598 116.606h92.4199h0.199219c4.40039 0 7.96777 -3.58398 7.96777 -7.9668v-102.704v-0.217773c0 -4.39941 -3.58398 -7.9668 -7.96777 -7.9668h-92.418
h-0.200195c-4.39941 0 -7.9668 3.58301 -7.9668 7.9668v102.704v0.199219c-0.0166016 4.40137 3.56738 7.98535 7.96582 7.98535zM433.289 100.655h-76.6855v-86.9697h76.6855v86.9697v0zM348.62 116.606h92.4199h0.216797c4.39941 0 7.9668 -3.58398 7.9668 -7.9668
v-102.704v-0.217773c0 -4.39941 -3.58398 -7.9668 -7.9668 -7.9668h-92.4209h-0.200195c-4.39941 0 -7.9834 3.58301 -7.9834 7.9668v102.704v0.199219c0 4.40137 3.58301 7.98535 7.96777 7.98535zM294.334 100.655h-76.6865v-86.9697h76.6865v86.9697v0zM209.682 116.606
h92.4199h0.216797c4.40039 0 7.9668 -3.58398 7.9668 -7.9668v-102.704v-0.217773c0 -4.39941 -3.58398 -7.9668 -7.9668 -7.9668h-92.4209h-0.216797c-4.40039 0 -7.9668 3.58301 -7.9668 7.9668v102.704v0.199219c0.000976562 4.40137 3.58398 7.98535 7.96777 7.98535z
M383.486 354.08c0 -4.40039 -3.58301 -7.9668 -7.9668 -7.9668c-4.40039 0 -7.96777 3.58398 -7.96777 7.9668v85.9531c-0.015625 4.38281 3.56738 7.9668 7.9502 7.9668c4.40039 0 7.96777 -3.58398 7.96777 -7.9668v-85.9531h0.0166016zM144.462 354.08
c0 -4.40039 -3.58301 -7.9668 -7.9668 -7.9668c-4.40039 0 -7.9668 3.58398 -7.9668 7.9668v85.9531c-0.015625 4.38281 3.56738 7.9668 7.9502 7.9668c4.40039 0 7.9834 -3.58398 7.9834 -7.9668v-85.9531zM136.479 408.115c4.40039 0 7.9668 -3.56641 7.9668 -7.9668
s-3.58301 -7.9668 -7.9668 -7.9668h-86.3018c-9.0498 0 -17.3506 -3.7666 -23.4004 -9.80078l-0.382812 -0.383789c-5.7998 -5.9668 -9.41699 -14.1328 -9.41699 -23v-36.5518h478.033v36.5518c0 9.08301 -3.76758 17.3672 -9.78418 23.3838l-0.382812 0.399414
c-5.98535 5.7998 -14.1504 9.40039 -23.0342 9.40039h-54.4863c-4.39941 0 -7.9668 3.58398 -7.9668 7.9668c0 4.40039 3.58301 7.96777 7.9668 7.96777h54.4863c13.1338 0 25.251 -5.35059 34.1338 -13.9668l0.549805 -0.5
c8.88379 -8.90039 14.4521 -21.168 14.4521 -34.6514v-44.3008v-0.216797c0 -4.40039 -3.58398 -7.96777 -7.96777 -7.96777h-493.752h-0.216797c-4.38379 -0.0166016 -7.9668 3.56738 -7.9668 7.96777v44.5176c0 13.1504 5.34961 25.2344 13.9668 34.1182l0.5 0.549805
c8.91699 8.91699 21.2012 14.4668 34.668 14.4668h86.3018l0.000976562 -0.0166016v0zM375.503 408.115c4.40039 0 7.9834 -3.56641 7.9668 -7.9668c0 -4.38281 -3.56738 -7.9668 -7.96777 -7.9668h-207.173c-4.38281 0 -7.9668 3.56641 -7.9668 7.9668
s3.56641 7.9668 7.9668 7.9668h207.174z" />
    </font>
</defs>
</svg>
